<?xml version="1.0" standalone="no"?>
<!DOCTYPE svg PUBLIC "-//W3C//DTD SVG 20010904//EN"
 "http://www.w3.org/TR/2001/REC-SVG-20010904/DTD/svg10.dtd">
<svg version="1.0" xmlns="http://www.w3.org/2000/svg"
 width="460.000000pt" height="460.000000pt" viewBox="0 0 460.000000 460.000000"
 preserveAspectRatio="xMidYMid meet">
<metadata>
Created by potrace 1.11, written by Peter Selinger 2001-2013
</metadata>
<g transform="translate(0.000000,460.000000) scale(0.100000,-0.100000)"
fill="#000000" stroke="none">
<path d="M0 2300 l0 -2300 974 0 c856 0 975 2 980 15 3 8 10 15 17 15 6 0 9
-7 5 -15 -5 -13 145 -15 1309 -15 l1315 0 0 2300 0 2300 -2300 0 -2300 0 0
-2300z m1600 1660 c0 -5 -4 -10 -10 -10 -5 0 -10 5 -10 10 0 6 5 10 10 10 6 0
10 -4 10 -10z m320 0 c0 -5 -4 -10 -10 -10 -5 0 -10 5 -10 10 0 6 5 10 10 10
6 0 10 -4 10 -10z m360 -110 c0 -5 -2 -10 -4 -10 -3 0 -8 5 -11 10 -3 6 -1 10
4 10 6 0 11 -4 11 -10z m-310 -182 c0 -15 59 -136 70 -143 6 -3 10 -1 10 4 0
6 5 11 11 11 5 0 7 -5 4 -10 -8 -12 17 -9 26 4 8 10 49 -11 49 -24 0 -6 8 -10
17 -10 14 0 12 4 -7 22 -15 14 -19 23 -11 26 9 3 9 7 0 18 -10 12 -9 13 5 8
10 -4 19 0 23 12 8 18 9 18 30 -2 l22 -20 -29 4 c-20 3 -30 0 -30 -9 0 -7 3
-9 7 -6 3 4 18 -6 33 -22 24 -28 68 -37 63 -14 -1 4 -5 21 -8 36 -6 23 -5 26
10 21 10 -4 15 -14 12 -26 -3 -11 1 -36 10 -56 8 -20 17 -48 20 -61 10 -55 23
-56 18 -1 l-5 55 20 -40 21 -40 -7 35 c-5 29 -4 33 7 22 11 -10 17 -8 31 10
l18 23 -4 -33 c-2 -18 0 -35 5 -38 5 -3 9 3 10 13 1 10 5 2 10 -17 9 -37 2
-120 -11 -120 -11 0 -22 -93 -11 -99 5 -3 13 -22 18 -41 7 -27 5 -43 -7 -67
-17 -32 -17 -32 -34 -11 -13 15 -20 17 -26 8 -5 -8 -9 -3 -12 13 -3 14 -1 32
4 39 7 10 8 8 4 -4 -3 -10 -3 -18 0 -18 10 0 32 66 39 120 l7 55 -22 -20 -22
-20 6 50 c4 37 3 42 -3 20 -5 -16 -9 -58 -10 -92 0 -34 -5 -64 -10 -67 -5 -3
-6 13 -4 37 3 23 0 68 -5 99 -5 32 -5 55 0 52 4 -3 8 0 8 5 0 6 -7 11 -16 11
-11 0 -15 -9 -14 -32 3 -54 -2 -77 -9 -40 -6 32 -28 42 -24 12 1 -11 -2 -9
-10 4 -7 10 -20 28 -30 40 l-18 21 7 -25 6 -25 -24 23 c-29 26 -38 28 -38 7 0
-9 -7 -18 -16 -22 -8 -3 -13 -12 -9 -21 5 -13 3 -13 -12 -1 -15 13 -16 12 -9
-6 5 -15 4 -17 -5 -8 -9 9 -17 9 -33 -2 -11 -7 -41 -16 -65 -19 -51 -7 -61
-13 -37 -22 25 -10 19 -22 -14 -29 -17 -4 -28 -10 -25 -15 3 -5 -1 -10 -7 -13
-7 -3 -4 -5 7 -6 11 0 38 -4 60 -9 42 -9 39 -12 -35 -30 -25 -6 -53 -14 -63
-17 -13 -6 -16 -3 -11 9 10 26 -8 19 -59 -24 l-48 -39 21 -21 c11 -11 25 -18
30 -15 5 3 8 -4 7 -15 -1 -14 -6 -19 -17 -15 -12 5 -13 4 -2 -6 6 -7 12 -26
12 -41 0 -19 5 -28 16 -28 12 0 15 -6 11 -21 -5 -17 -2 -20 14 -16 19 5 25 -3
12 -17 -18 -17 -10 -36 15 -38 62 -3 104 3 127 18 14 9 32 14 40 10 9 -3 13
-2 10 4 -3 6 1 13 10 16 9 4 14 13 11 21 -4 11 -1 13 14 8 18 -6 20 -2 20 33
l0 38 43 -1 c23 0 47 -4 54 -8 7 -5 16 1 23 13 l11 21 20 -22 c10 -12 19 -17
19 -11 0 7 5 12 11 12 5 0 7 -5 4 -10 -3 -6 1 -17 10 -26 10 -10 13 -24 9 -37
-8 -26 -29 -48 -38 -40 -3 4 -6 -1 -6 -10 0 -9 4 -17 10 -17 5 0 9 -12 9 -27
0 -16 3 -48 7 -71 4 -30 2 -47 -6 -55 -10 -9 -12 -8 -7 4 3 9 1 22 -4 30 -8
12 -11 11 -20 -3 -5 -10 -15 -18 -21 -18 -6 0 -20 -10 -32 -23 -22 -24 -55
-24 -69 -1 -13 22 -37 16 -47 -12 -7 -19 -7 -31 1 -40 9 -11 8 -14 -4 -14 -8
0 -21 -13 -29 -30 -7 -16 -16 -30 -20 -30 -3 0 -5 -13 -3 -30 5 -36 -5 -43
-40 -30 -20 8 -31 7 -41 -1 -12 -9 -13 -9 -9 3 4 10 -1 17 -12 20 -15 4 -19
-1 -18 -28 0 -18 2 -30 4 -28 7 7 31 -18 31 -33 0 -11 -4 -11 -20 -3 -21 11
-40 6 -40 -10 0 -5 8 -7 18 -4 9 4 4 -3 -13 -13 -16 -11 -36 -27 -44 -36 -14
-18 -7 -22 29 -17 12 1 13 -1 3 -11 -15 -15 -17 -43 -3 -34 6 3 10 -1 10 -10
0 -12 6 -14 27 -9 22 6 25 4 20 -10 -4 -9 -1 -16 6 -17 7 0 2 -5 -11 -11 -25
-12 -44 -2 -22 12 8 5 12 12 8 15 -3 3 -18 -4 -33 -17 -26 -23 -26 -24 -8 -40
10 -9 38 -19 62 -22 24 -3 49 -10 56 -16 9 -7 16 -6 24 4 15 18 42 10 34 -11
-4 -10 -8 -11 -13 -3 -4 7 -13 2 -24 -14 -9 -14 -12 -26 -7 -26 5 0 9 -17 9
-37 0 -21 5 -39 11 -41 9 -3 9 -7 0 -18 -12 -15 -6 -44 10 -44 5 0 11 12 14
28 4 27 4 27 12 -6 5 -22 10 -29 16 -21 11 19 42 21 35 2 -4 -11 -2 -13 9 -9
12 4 14 0 9 -22 -9 -35 -6 -33 -43 -26 -23 5 -30 11 -26 22 4 12 3 13 -10 2
-12 -10 -15 -10 -15 4 0 11 -5 14 -12 10 -7 -5 -8 -3 -3 6 6 10 4 12 -9 7 -12
-5 -15 -3 -10 6 5 8 2 7 -9 -2 -13 -10 -20 -11 -30 -2 -8 6 -16 8 -19 5 -3 -2
-8 2 -12 11 -3 9 1 18 9 21 8 4 15 10 15 15 0 4 -7 6 -15 3 -8 -4 -15 -1 -15
6 0 6 -4 8 -10 5 -14 -8 -13 8 1 22 19 19 -17 9 -39 -10 -23 -21 -39 -22 -22
-2 9 10 9 15 1 15 -6 0 -11 5 -11 11 0 6 7 9 15 5 8 -3 15 -1 15 3 0 5 3 18 7
28 7 17 6 17 -11 0 -21 -21 -30 -22 -22 -2 3 10 -1 15 -12 15 -15 0 -15 2 -2
10 13 8 12 10 -2 10 -25 0 -22 26 5 45 l22 17 -24 -7 c-17 -5 -22 -4 -16 5 5
9 4 11 -4 6 -6 -4 -8 -12 -4 -19 3 -6 -7 -1 -24 11 -33 23 -53 28 -53 12 0 -5
7 -7 15 -3 10 3 15 0 13 -8 -2 -8 -12 -16 -23 -19 -11 -3 -19 -14 -19 -23 1
-9 2 -24 3 -32 0 -8 9 -15 18 -15 13 0 14 -3 5 -12 -20 -20 -13 -57 16 -86 15
-15 39 -46 55 -70 l27 -43 -42 33 c-24 18 -45 37 -46 41 -5 11 -99 57 -104 51
-3 -2 -11 2 -18 11 -7 8 -20 15 -30 15 -9 0 -27 9 -40 20 -13 11 -32 20 -42
20 -31 0 -56 18 -75 53 -28 50 -31 71 -15 89 15 18 19 87 6 97 -12 8 -19 46
-19 102 0 35 6 53 28 78 15 18 27 39 27 47 0 8 9 14 19 14 11 0 23 5 26 10 3
6 0 10 -7 10 -9 0 -9 3 2 10 10 6 15 26 15 60 0 27 3 50 8 50 5 0 6 9 2 19 -3
11 -1 22 5 26 6 4 9 13 6 20 -2 7 2 16 10 19 9 3 12 11 8 17 -8 14 17 31 31
20 5 -5 21 -12 33 -16 21 -6 23 -5 13 13 -8 16 -7 21 6 27 14 5 15 8 4 14 -10
7 -9 10 3 14 9 4 16 14 16 23 0 9 13 43 30 75 16 33 29 63 29 67 -4 21 2 32
14 26 7 -4 9 -3 4 2 -5 5 -14 9 -20 9 -15 0 -17 43 -4 70 6 10 11 35 13 55 2
20 10 49 18 65 9 17 16 42 16 58 0 18 5 27 16 27 13 0 14 3 5 14 -14 16 3 33
46 45 l28 8 -30 13 c-28 11 -28 13 -10 20 11 5 16 9 10 9 -5 1 -4 5 3 10 11 6
10 11 -3 25 -15 14 -15 16 -1 16 9 0 16 -4 16 -10 0 -5 4 -10 8 -10 5 0 9 7 9
15 0 8 -4 16 -9 16 -4 1 -14 2 -20 3 -7 1 -24 -2 -37 -6 -15 -5 -28 -5 -34 1
-11 11 -5 12 82 12 60 0 61 3 5 23 -21 8 -31 15 -21 15 11 1 15 6 11 12 -4 7
0 9 14 5 26 -8 74 3 66 15 -3 6 -13 7 -22 5 -10 -3 -37 1 -62 8 l-45 14 37 7
c20 4 46 4 57 0 13 -4 21 -2 21 5 0 6 5 8 10 5 6 -3 10 -11 10 -17z m-100 -38
c0 -5 -4 -10 -9 -10 -6 0 -13 5 -16 10 -3 6 1 10 9 10 9 0 16 -4 16 -10z m411
-27 c-12 -20 -14 -14 -5 12 4 9 9 14 11 11 3 -2 0 -13 -6 -23z m-27 2 c3 -8 1
-15 -4 -15 -6 0 -10 -8 -10 -17 -1 -17 -1 -17 -11 0 -11 19 -6 47 10 47 5 0
11 -7 15 -15z m776 -39 c0 -3 -4 -8 -10 -11 -5 -3 -10 -1 -10 4 0 6 5 11 10
11 6 0 10 -2 10 -4z m-573 -88 c-3 -7 -5 -2 -5 12 0 14 2 19 5 13 2 -7 2 -19
0 -25z m12 -164 c-6 -8 -17 -14 -23 -13 -7 0 -6 2 2 6 6 2 10 8 7 13 -3 4 1
23 8 41 l12 34 3 -33 c2 -18 -2 -40 -9 -48z m901 62 c0 -3 -4 -8 -10 -11 -5
-3 -10 -1 -10 4 0 6 5 11 10 11 6 0 10 -2 10 -4z m-1720 -41 c9 5 11 4 6 -4
-13 -20 -17 -61 -6 -61 7 0 7 -7 -1 -21 -6 -12 -7 -19 -1 -15 11 7 4 -80 -9
-106 -5 -9 -9 -32 -9 -51 0 -19 -9 -60 -20 -92 -11 -33 -17 -68 -14 -82 6 -23
5 -25 -17 -18 -29 10 -47 31 -55 68 -4 15 -17 36 -29 45 -20 16 -55 71 -55 87
0 8 63 -27 72 -40 4 -5 8 2 8 16 0 35 64 194 77 192 6 -1 9 6 6 18 -4 15 -8
17 -19 8 -11 -9 -14 -8 -14 4 0 8 9 17 20 20 15 4 20 0 20 -15 0 -10 4 -17 9
-14 4 3 7 22 5 43 -3 25 -1 33 5 24 5 -8 14 -10 21 -6z m880 -25 c-16 -31 -23
-18 -8 15 7 15 14 23 16 17 2 -6 -2 -21 -8 -32z m-939 7 c-10 -9 -11 -8 -5 6
3 10 9 15 12 12 3 -3 0 -11 -7 -18z m1057 14 c2 -1 -6 -16 -17 -35 -30 -48
-26 -56 9 -16 17 19 29 28 28 20 -3 -16 -9 -24 -44 -64 -23 -25 -26 -26 -20
-8 11 32 -12 28 -25 -5 -7 -19 -13 -23 -21 -15 -6 6 -7 16 -2 24 5 7 9 19 11
27 1 7 6 18 12 24 8 8 11 5 11 -8 1 -17 3 -17 15 5 17 30 19 54 3 44 -6 -4 -8
-3 -5 4 6 8 17 9 45 3z m-158 -38 c-11 -17 -11 -17 -6 0 3 10 6 24 7 30 0 9 2
9 5 0 3 -7 0 -20 -6 -30z m64 -9 c-6 -24 -44 -74 -44 -58 0 8 43 84 47 84 2 0
0 -12 -3 -26z m-277 -31 c-3 -10 -5 -4 -5 12 0 17 2 24 5 18 2 -7 2 -21 0 -30z
m164 6 c-9 -22 -10 -22 -10 -3 -1 11 2 24 6 27 12 12 14 0 4 -24z m-951 -9
c-6 -11 -13 -20 -16 -20 -2 0 0 9 6 20 6 11 13 20 16 20 2 0 0 -9 -6 -20z m65
-21 c-8 -57 -33 -105 -48 -90 -9 9 -8 15 6 22 10 6 17 22 17 40 0 24 18 69 27
69 2 0 1 -18 -2 -41z m1161 -8 l-27 -26 12 27 c6 15 16 25 20 22 5 -3 9 3 10
13 0 12 2 14 6 4 3 -7 -7 -25 -21 -40z m-1186 35 c0 -2 -8 -10 -17 -17 -16
-13 -17 -12 -4 4 13 16 21 21 21 13z m846 -32 c-4 -9 -9 -15 -11 -12 -3 3 -3
13 1 22 4 9 9 15 11 12 3 -3 3 -13 -1 -22z m302 17 c10 7 7 2 -5 -11 -25 -26
-38 -23 -26 6 4 11 8 13 11 6 3 -10 7 -10 20 -1z m-1177 -64 c-13 -13 -15 1
-4 30 7 17 8 17 11 -1 2 -10 -1 -23 -7 -29z m959 16 c0 -10 -5 -25 -10 -33 -7
-11 -9 -6 -7 17 2 34 17 47 17 16z m71 -14 c-9 -22 -10 -22 -10 -3 -1 11 2 24
6 27 12 12 14 0 4 -24z m104 22 c3 -5 1 -12 -5 -16 -5 -3 -10 1 -10 9 0 18 6
21 15 7z m-52 -13 c-4 -7 -14 -29 -20 -48 l-13 -35 5 38 c2 25 0 35 -7 31 -7
-4 -8 -2 -4 5 4 6 11 9 16 6 5 -3 11 -1 15 5 3 5 8 10 11 10 3 0 2 -6 -3 -12z
m997 2 c0 -5 -2 -10 -4 -10 -3 0 -8 5 -11 10 -3 6 -1 10 4 10 6 0 11 -4 11
-10z m-1287 -15 c-3 -9 -8 -14 -10 -11 -3 3 -2 9 2 15 9 16 15 13 8 -4z m386
5 c-9 -5 -20 -22 -23 -36 -8 -29 -15 -28 -21 5 -2 12 0 19 4 16 5 -2 14 2 21
10 7 8 18 15 24 15 6 0 4 -5 -5 -10z m-139 -54 c0 -15 -3 -17 -9 -8 -5 8 -8
-5 -7 -35 1 -26 -2 -57 -7 -69 -5 -14 -1 -27 13 -42 24 -26 25 -35 4 -67 -9
-13 -13 -29 -9 -34 3 -7 0 -8 -9 -5 -11 4 -19 -2 -25 -19 -11 -28 -21 -37 -54
-43 -26 -4 -33 19 -13 46 10 13 9 13 -7 1 -16 -13 -20 -13 -28 0 -5 8 -7 20
-4 27 2 6 -2 12 -9 12 -18 0 -30 30 -17 43 5 5 12 1 16 -12 3 -12 11 -19 16
-15 6 3 8 13 5 21 -4 8 5 28 19 45 l25 30 0 -29 c0 -16 -6 -35 -12 -42 -11
-10 -10 -11 5 -6 9 4 17 11 17 16 0 5 7 9 15 9 16 0 21 27 16 88 -1 18 5 42
14 54 8 13 15 30 15 39 0 8 7 16 15 16 9 0 15 -9 15 -21z m-505 -37 c0 -7 -8
-15 -17 -17 -18 -3 -25 18 -11 32 10 10 28 1 28 -15z m407 -1 c-8 -8 -8 -17
-1 -30 8 -15 7 -24 -5 -37 -9 -10 -16 -23 -16 -29 0 -6 -9 -16 -20 -22 -18
-10 -18 -7 5 55 14 36 25 68 25 70 0 3 5 5 12 5 9 0 9 -3 0 -12z m-80 -43 c12
22 17 25 18 12 0 -10 4 -16 9 -13 5 4 7 -3 4 -15 -4 -14 -8 -17 -13 -9 -11 18
-23 -6 -22 -44 0 -32 -6 -25 -22 28 -5 15 -9 16 -21 6 -19 -16 -19 -8 2 38
l16 37 6 -35 7 -35 16 30z m-305 -71 c-3 -3 -12 -4 -19 -1 -8 3 -5 6 6 6 11 1
17 -2 13 -5z m719 -53 c-10 -16 -36 -13 -36 3 0 17 21 27 34 16 4 -5 5 -13 2
-19z m-806 -26 c0 -2 -6 -8 -13 -14 -10 -8 -14 -7 -14 2 0 8 6 14 14 14 7 0
13 -1 13 -2z m-45 -25 c-3 -5 -12 -10 -18 -10 -7 0 -6 4 3 10 19 12 23 12 15
0z m62 -6 c-3 -3 -12 -4 -19 -1 -8 3 -5 6 6 6 11 1 17 -2 13 -5z m466 -141 c3
-16 4 -29 3 -31 -7 -6 -35 11 -31 19 3 4 -10 2 -29 -6 -48 -20 -50 -19 -19 15
34 39 69 40 76 3z m32 17 c3 -5 2 -10 -4 -10 -5 0 -13 5 -16 10 -3 6 -2 10 4
10 5 0 13 -4 16 -10z m88 -95 c1 -5 -6 -11 -15 -13 -11 -2 -18 3 -18 13 0 17
30 18 33 0z m7 -135 c0 -5 -4 -10 -10 -10 -5 0 -10 5 -10 10 0 6 5 10 10 10 6
0 10 -4 10 -10z m-18 -84 c7 4 8 2 4 -4 -11 -18 -26 -14 -25 6 0 10 3 12 6 4
2 -6 10 -9 15 -6z m-345 -12 c-3 -3 -12 -4 -19 -1 -8 3 -5 6 6 6 11 1 17 -2
13 -5z m-280 -36 c-3 -8 -6 -5 -6 6 -1 11 2 17 5 13 3 -3 4 -12 1 -19z m-547
-12 c0 -3 -4 -8 -10 -11 -5 -3 -10 -1 -10 4 0 6 5 11 10 11 6 0 10 -2 10 -4z
m-30 -24 c0 -4 -11 -12 -25 -19 -28 -13 -33 -2 -9 21 15 15 34 14 34 -2z
m2065 -32 c10 -22 15 -44 10 -48 -4 -4 -10 -1 -12 5 -3 9 -10 10 -23 3 -13 -7
-21 -7 -25 0 -3 5 1 10 9 10 9 0 16 7 16 15 0 8 -7 15 -15 15 -18 0 -19 12 -3
28 18 18 24 15 43 -28z m-2006 -57 c-22 -6 -49 -56 -39 -72 4 -8 15 -11 25 -8
10 4 13 12 9 19 -6 10 -4 10 8 0 10 -8 14 -21 10 -35 -5 -18 -7 -19 -10 -4 -5
22 -22 12 -22 -13 0 -13 5 -17 15 -14 23 9 18 -4 -6 -17 -15 -8 -19 -8 -15 0
4 6 0 11 -8 11 -9 0 -16 -4 -16 -10 0 -17 -29 -11 -38 8 -11 19 2 62 17 62 17
0 23 -20 11 -35 -7 -8 -10 -20 -8 -27 3 -8 9 -4 17 10 10 19 10 30 1 52 -7 16
-8 35 -4 42 4 7 -2 5 -13 -4 -21 -20 -38 -24 -28 -8 3 6 1 10 -5 10 -6 0 -8 5
-4 11 4 7 9 7 13 2 3 -6 18 -3 36 8 17 10 39 17 50 17 13 0 15 -2 4 -5z m21
-33 c0 -5 -4 -10 -9 -10 -6 0 -13 5 -16 10 -3 6 1 10 9 10 9 0 16 -4 16 -10z
m1925 -16 c21 -13 31 -17 65 -23 3 -1 -2 -5 -10 -11 -9 -5 -19 -5 -27 2 -18
15 -17 -15 2 -52 14 -27 14 -30 -10 -56 -18 -20 -25 -23 -25 -11 0 21 -20 33
-30 18 -5 -9 -11 -7 -21 5 -12 16 -12 17 4 11 12 -5 17 -1 17 13 0 22 -16 27
-23 8 -3 -7 -6 -3 -6 8 -1 12 6 27 14 34 13 11 14 10 10 -2 -4 -9 0 -18 8 -21
10 -4 17 3 20 21 6 32 -1 52 -19 52 -8 0 -14 5 -14 10 0 15 17 12 45 -6z m-76
-10 c-11 -13 -9 -14 13 -9 15 4 29 2 33 -4 3 -7 3 -11 -2 -10 -22 5 -66 -16
-88 -43 l-25 -30 0 31 c0 51 19 81 53 81 26 0 28 -2 16 -16z m-2009 -4 c-8 -5
-19 -10 -25 -10 -5 0 -3 5 5 10 8 5 20 10 25 10 6 0 3 -5 -5 -10z m900 -10 c0
-5 -7 -10 -15 -10 -8 0 -15 5 -15 10 0 6 7 10 15 10 8 0 15 -4 15 -10z m1340
-10 c0 -5 -5 -10 -11 -10 -5 0 -7 5 -4 10 3 6 8 10 11 10 2 0 4 -4 4 -10z
m-1270 -9 c0 -5 -9 -11 -20 -14 -22 -6 -28 8 -7 16 19 8 27 8 27 -2z m-170
-17 c0 -8 -5 -12 -10 -9 -6 4 -8 11 -5 16 9 14 15 11 15 -7z m1109 -35 c12
-53 7 -75 -9 -49 -5 8 -12 11 -17 7 -4 -4 -1 -17 6 -29 9 -14 10 -23 2 -31
-16 -16 -13 -53 4 -67 9 -7 14 -19 11 -26 -3 -7 -1 -16 3 -19 13 -7 1 -47 -13
-42 -6 2 -10 20 -8 40 2 25 -1 39 -10 42 -10 4 -14 21 -12 55 3 70 -9 75 -89
34 -37 -19 -69 -34 -72 -34 -3 0 -5 10 -5 22 0 12 3 19 6 15 7 -7 21 4 68 50
35 34 104 83 117 83 4 0 12 -23 18 -51z m-1709 32 c0 -6 -4 -13 -10 -16 -5 -3
-10 1 -10 9 0 9 5 16 10 16 6 0 10 -4 10 -9z m1995 -1 c3 -6 -1 -7 -9 -4 -18
7 -21 14 -7 14 6 0 13 -4 16 -10z m-189 -22 c4 -7 3 -8 -4 -4 -8 5 -12 -1 -12
-14 0 -12 -5 -18 -10 -15 -7 4 -7 13 0 26 12 22 16 23 26 7z m-1776 -28 c8 -5
11 -10 5 -10 -5 0 -17 5 -25 10 -8 5 -10 10 -5 10 6 0 17 -5 25 -10z m66 -25
c1 -14 -2 -25 -7 -25 -6 0 -8 -12 -6 -27 2 -17 -2 -32 -11 -39 -19 -14 -24
-44 -10 -61 6 -7 8 -13 5 -13 -3 0 -12 -3 -20 -6 -9 -3 -16 3 -20 16 -3 12
-10 19 -15 16 -6 -3 -9 4 -7 16 4 33 16 58 26 58 5 0 2 -12 -7 -26 -15 -22
-15 -27 -3 -35 10 -6 15 -3 17 10 2 10 11 26 22 36 14 13 16 23 10 46 -6 21
-5 33 6 44 19 19 19 19 20 -10z m1668 0 c-4 -9 -15 -20 -26 -26 -20 -11 -20
-11 -2 15 21 28 37 34 28 11z m-1624 -15 c0 -5 -2 -10 -4 -10 -3 0 -8 5 -11
10 -3 6 -1 10 4 10 6 0 11 -4 11 -10z m-142 -47 c-14 -34 -35 -58 -23 -28 4
11 10 28 12 38 3 9 9 17 14 17 5 0 3 -12 -3 -27z m1642 13 c0 -11 -19 -15 -25
-6 -3 5 1 10 9 10 9 0 16 -2 16 -4z m167 -28 c-3 -8 -6 -5 -6 6 -1 11 2 17 5
13 3 -3 4 -12 1 -19z m-217 3 c0 -6 -4 -13 -10 -16 -5 -3 -10 1 -10 9 0 9 5
16 10 16 6 0 10 -4 10 -9z m-2180 -5 c0 -2 -8 -10 -17 -17 -16 -13 -17 -12 -4
4 13 16 21 21 21 13z m2366 -64 c-6 -6 -26 43 -25 61 0 7 7 -3 15 -22 8 -18
13 -36 10 -39z m-1510 -11 c1 -14 -1 -20 -3 -13 -3 6 -12 12 -20 12 -13 0 -13
3 -3 15 9 10 9 15 1 15 -6 0 -11 8 -11 17 0 28 35 -16 36 -46z m1344 49 c0 -5
-8 -10 -17 -10 -15 0 -16 2 -3 10 19 12 20 12 20 0z m130 -25 c10 -26 3 -58
-10 -50 -5 3 -6 14 -3 25 3 11 0 27 -7 35 -9 11 -9 15 -1 15 6 0 16 -11 21
-25z m-2436 -16 c-3 -5 -10 -7 -15 -3 -5 3 -7 10 -3 15 3 5 10 7 15 3 5 -3 7
-10 3 -15z m833 -11 c-3 -7 -5 -2 -5 12 0 14 2 19 5 13 2 -7 2 -19 0 -25z
m1362 1 c-12 -8 -12 -10 0 -18 8 -5 9 -11 3 -15 -5 -3 -15 1 -21 8 -10 11 -8
19 6 35 11 13 19 17 22 10 2 -6 -3 -15 -10 -20z m-2253 -6 c-10 -10 -19 5 -10
18 6 11 8 11 12 0 2 -7 1 -15 -2 -18z m739 17 c3 -5 1 -10 -4 -10 -6 0 -11 5
-11 10 0 6 2 10 4 10 3 0 8 -4 11 -10z m1650 -10 c3 -5 1 -10 -4 -10 -6 0 -11
5 -11 10 0 6 2 10 4 10 3 0 8 -4 11 -10z m-2373 -32 c-7 -7 -12 -8 -12 -2 0
14 12 26 19 19 2 -3 -1 -11 -7 -17z m899 -11 c-8 -8 -11 -7 -11 4 0 9 3 19 7
23 4 4 9 2 11 -4 3 -7 -1 -17 -7 -23z m1446 -4 c-3 -10 -5 -4 -5 12 0 17 2 24
5 18 2 -7 2 -21 0 -30z m-2300 5 c-3 -8 -6 -5 -6 6 -1 11 2 17 5 13 3 -3 4
-12 1 -19z m2460 0 c-3 -8 -6 -5 -6 6 -1 11 2 17 5 13 3 -3 4 -12 1 -19z m663
12 c0 -5 -4 -10 -10 -10 -5 0 -10 5 -10 10 0 6 5 10 10 10 6 0 10 -4 10 -10z
m50 -11 c0 -16 -30 -42 -38 -34 -4 4 -1 10 6 12 6 3 12 14 12 24 0 11 5 17 10
14 6 -3 10 -11 10 -16z m-820 -24 c0 -5 -5 -3 -10 5 -5 8 -10 20 -10 25 0 6 5
3 10 -5 5 -8 10 -19 10 -25z m-1375 -34 c-16 -49 -33 -72 -22 -31 3 11 1 20
-3 20 -11 0 -24 39 -16 48 3 3 12 -3 20 -13 12 -17 13 -16 20 10 4 15 9 25 13
22 3 -3 -3 -28 -12 -56z m1300 14 c6 -30 6 -30 -10 4 -17 38 -19 49 -6 36 5
-6 12 -23 16 -40z m-1255 -25 c-11 -16 -20 -43 -20 -62 l0 -33 -13 25 c-7 14
-11 27 -8 30 15 13 33 59 27 69 -4 6 -4 16 0 23 5 8 11 6 20 -7 11 -15 10 -22
-6 -45z m217 -109 c43 -90 76 -146 102 -171 l38 -37 -9 -59 c-17 -108 -59
-328 -73 -379 -8 -27 -17 -68 -20 -90 -4 -22 -11 -64 -17 -92 l-11 -53 -41 6
c-55 9 -60 16 -50 61 5 21 6 76 3 123 -15 191 -22 256 -31 267 -5 7 -7 17 -3
23 11 18 46 332 48 437 2 61 -1 76 -22 105 l-24 33 23 -20 c13 -11 52 -80 87
-154z m-857 155 c0 -3 -4 -8 -10 -11 -5 -3 -10 -1 -10 4 0 6 5 11 10 11 6 0
10 -2 10 -4z m200 -6 c0 -5 -4 -10 -10 -10 -5 0 -10 5 -10 10 0 6 5 10 10 10
6 0 10 -4 10 -10z m1511 1 c-9 -6 -10 -11 -2 -15 6 -4 8 -18 5 -31 -3 -12 -1
-26 5 -29 14 -9 14 -56 1 -76 -7 -11 -10 -7 -10 17 0 37 -19 83 -34 83 -5 0
-1 7 10 16 15 12 16 17 5 21 -11 5 -11 7 0 14 8 5 19 9 24 9 6 0 4 -4 -4 -9z
m1019 -11 c-8 -5 -17 -7 -19 -4 -3 3 1 9 9 14 8 5 17 7 19 4 3 -3 -1 -9 -9
-14z m-2425 0 c-3 -5 -12 -10 -18 -10 -7 0 -6 4 3 10 19 12 23 12 15 0z m199
-15 c-4 -10 0 -15 15 -15 12 0 21 -4 21 -10 0 -16 -36 -12 -51 6 -10 13 -10
17 2 25 19 12 19 11 13 -6z m1253 -2 c14 -17 14 -17 9 0 -3 9 -1 17 4 17 13 0
28 -32 23 -47 -3 -7 2 -14 11 -14 9 -1 22 -2 29 -3 6 -1 11 8 10 19 -1 11 0
14 3 7 3 -6 10 -10 15 -6 11 6 11 2 3 -20 -7 -18 -59 -22 -69 -6 -3 6 -14 10
-23 10 -12 0 -13 -3 -4 -12 17 -17 15 -25 -9 -31 -16 -4 -18 -3 -8 9 6 8 8 14
3 14 -5 0 -9 10 -10 23 0 12 -4 30 -8 40 -5 9 -5 17 -1 17 4 0 14 -8 22 -17z
m613 -13 c0 -5 -4 -10 -10 -10 -5 0 -10 5 -10 10 0 6 5 10 10 10 6 0 10 -4 10
-10z m-2846 -19 c10 -16 -5 -39 -34 -51 -33 -14 -50 -7 -50 20 0 25 18 36 26
15 6 -14 8 -13 21 5 15 22 28 26 37 11z m2156 -31 c6 -11 7 -20 2 -20 -6 0
-12 9 -15 20 -3 11 -3 20 -1 20 2 0 8 -9 14 -20z m-2065 0 c3 -5 -1 -10 -9
-10 -9 0 -16 5 -16 10 0 6 4 10 9 10 6 0 13 -4 16 -10z m-215 -25 c0 -15 -6
-25 -14 -25 -22 0 -30 19 -16 35 18 22 30 18 30 -10z m3430 -1 c0 -17 17 -19
23 -1 4 9 7 9 18 -1 11 -10 10 -15 -3 -28 -13 -13 -20 -14 -39 -3 -32 16 -40
31 -27 46 12 15 28 8 28 -13z m-3500 0 c0 -20 27 -47 40 -39 5 3 10 2 10 -3 0
-11 -23 -22 -44 -22 -17 0 -37 45 -30 65 8 20 24 19 24 -1z m430 -16 c8 -18
13 -39 12 -45 -2 -7 4 -13 12 -13 10 0 13 -6 9 -17 -5 -12 -2 -15 10 -10 9 3
17 2 17 -3 0 -6 6 -10 13 -10 16 0 51 -37 60 -62 4 -10 13 -18 22 -18 8 0 15
-5 15 -11 0 -6 -9 -8 -20 -4 -11 4 -20 2 -20 -4 0 -6 7 -11 15 -11 17 0 20
-16 5 -25 -5 -3 -10 -11 -10 -17 0 -6 6 -5 16 3 15 12 34 19 62 21 6 1 12 7
12 15 0 15 16 18 24 4 4 -5 1 -11 -5 -13 -13 -4 17 -58 32 -58 5 0 9 -4 9 -10
0 -5 -7 -7 -15 -4 -10 4 -15 0 -15 -13 0 -10 -6 -25 -12 -33 -11 -12 -10 -12
5 -1 9 8 21 11 25 7 4 -4 -2 -14 -12 -22 -23 -16 -36 -18 -36 -5 0 5 -9 7 -20
4 -34 -9 -70 23 -70 62 0 19 -4 35 -10 35 -5 0 -7 7 -4 15 8 19 -10 20 -25 1
-6 -7 -26 -16 -43 -20 l-31 -6 33 -30 c19 -17 38 -30 44 -30 6 0 5 -5 -2 -12
-9 -9 -16 -7 -29 9 -10 11 -28 25 -41 32 -12 7 -20 16 -17 21 3 4 -9 22 -26
40 -25 24 -30 37 -26 58 6 31 -5 58 -21 48 -6 -3 -13 0 -15 6 -7 16 -29 -11
-23 -28 2 -6 -5 -16 -15 -22 -10 -7 -19 -17 -19 -23 0 -5 4 -8 9 -4 5 3 12 2
15 -3 2 -4 -4 -9 -15 -9 -13 -1 -19 5 -19 18 0 16 -3 17 -20 9 -11 -5 -29 -14
-40 -20 -24 -12 -30 -13 -30 -2 0 5 10 14 23 20 l22 11 -22 0 c-27 1 -35 22
-14 38 14 11 14 14 1 22 -8 6 -11 14 -6 18 5 4 11 2 13 -5 4 -10 8 -10 19 -1
11 9 14 8 14 -5 0 -9 -4 -16 -9 -16 -5 0 -11 -10 -14 -21 -4 -16 -3 -19 5 -11
8 8 14 7 22 -3 7 -9 19 -12 34 -8 19 4 23 11 19 30 -2 13 0 26 4 29 5 3 9 0 9
-5 0 -8 7 -7 20 1 19 12 19 13 1 33 -35 37 -31 69 12 95 45 28 60 25 77 -12z
m795 15 c11 -6 17 -14 14 -17 -6 -7 -59 16 -59 26 0 9 21 5 45 -9z m111 -10
c-8 -8 -36 5 -36 17 0 7 6 7 21 0 11 -7 18 -14 15 -17z m2064 -8 c-7 -9 -15
-13 -17 -11 -7 7 7 26 19 26 6 0 6 -6 -2 -15z m-3220 -5 c0 -5 -4 -10 -10 -10
-5 0 -10 5 -10 10 0 6 5 10 10 10 6 0 10 -4 10 -10z m2188 -2 c-3 -7 -15 -15
-27 -16 -20 -3 -22 -2 -10 12 17 18 42 21 37 4z m1250 -9 c8 -12 9 -18 3 -15
-5 4 -12 2 -16 -4 -9 -15 -25 -2 -25 21 0 25 22 24 38 -2z m-3468 1 c0 -5 -10
-10 -22 -9 -22 0 -22 1 -3 9 11 5 21 9 23 9 1 1 2 -3 2 -9z m118 -10 c15 0 15
-2 2 -10 -23 -15 -30 -12 -29 13 0 12 3 16 6 10 2 -7 12 -13 21 -13z m948 -7
c-7 -7 -26 7 -26 19 0 6 6 6 15 -2 9 -7 13 -15 11 -17z m1282 21 c-4 -3 -10
-6 -15 -6 -4 0 -14 -4 -21 -10 -7 -6 -16 -8 -19 -4 -4 4 -1 11 7 16 16 10 57
14 48 4z m792 -4 c0 -5 6 -10 14 -10 22 0 44 -37 39 -64 -7 -35 -44 -51 -83
-37 -28 9 -31 9 -20 -4 6 -8 8 -20 4 -27 -5 -10 -4 -11 7 0 7 6 25 12 40 12
15 0 30 -6 32 -12 4 -10 8 -10 15 1 7 9 12 10 16 2 4 -6 2 -11 -3 -11 -21 0
-12 -40 9 -41 29 -2 32 -3 65 -22 l30 -18 -35 7 c-19 3 -41 11 -47 16 -10 8
-13 5 -13 -10 0 -14 -6 -20 -19 -19 -11 0 -17 5 -15 9 3 5 10 6 15 3 19 -12 8
14 -12 28 -13 10 -16 16 -8 19 23 8 -1 27 -29 24 -23 -3 -28 -8 -32 -42 -6
-43 -28 -84 -47 -84 -7 0 -10 -6 -7 -14 3 -9 -4 -20 -18 -27 -12 -7 -29 -18
-36 -26 -7 -7 -19 -13 -25 -12 -8 0 -8 2 1 6 6 2 10 9 6 14 -3 5 1 9 8 9 16 0
49 36 41 44 -4 3 -15 6 -26 6 -13 0 -17 -5 -13 -16 4 -10 1 -14 -6 -11 -7 2
-13 14 -13 27 0 13 -6 25 -14 28 -10 3 -12 0 -8 -11 3 -9 -1 -18 -9 -21 -8 -3
-14 -11 -13 -18 4 -34 -3 -49 -31 -63 -17 -9 -35 -13 -41 -9 -6 4 -15 1 -19
-6 -6 -9 -12 -9 -29 -1 -11 7 -21 16 -21 21 0 12 26 13 33 3 2 -5 1 -1 -2 7
-10 29 -4 82 10 91 12 7 12 11 1 18 -11 7 -11 9 2 14 11 4 16 1 16 -10 0 -9 3
-13 7 -10 3 4 12 2 20 -5 7 -6 16 -8 20 -5 3 4 12 2 19 -4 9 -8 11 -5 7 10 -4
15 -1 21 11 21 10 0 15 4 11 10 -3 5 -12 7 -20 3 -8 -3 -15 0 -15 6 0 6 8 11
18 11 10 0 22 12 29 30 6 16 24 35 40 42 15 7 31 17 35 23 4 5 8 7 8 3 0 -5 8
0 18 10 11 9 17 20 15 24 -8 14 31 69 45 63 7 -2 10 0 7 5 -3 6 -1 10 4 10 6
0 11 -4 11 -10z m380 -14 c0 -8 -8 -23 -17 -34 -15 -17 -22 -19 -43 -9 -24 10
-24 11 -4 14 12 2 26 15 33 29 11 25 31 25 31 0z m-3186 8 c23 -9 20 -24 -4
-24 -11 0 -20 7 -20 15 0 17 2 18 24 9z m766 -20 c0 -8 -5 -12 -10 -9 -6 4 -8
11 -5 16 9 14 15 11 15 -7z m-1080 -3 c0 -5 -13 -14 -29 -20 -23 -10 -27 -17
-23 -39 l5 -27 9 28 c6 15 13 27 18 27 5 0 15 3 24 6 20 8 21 -14 1 -35 -58
-63 -57 -62 -39 -59 9 2 19 -2 21 -8 2 -6 -2 -11 -9 -11 -18 0 -126 -52 -133
-64 -9 -13 -25 -1 -25 19 0 12 9 17 31 18 32 1 58 19 45 31 -4 4 -11 1 -16 -7
-5 -8 -13 -11 -17 -6 -4 5 -2 11 5 13 6 3 12 11 12 19 0 8 7 14 15 14 8 0 15
5 15 10 0 6 -5 9 -11 8 -24 -6 -19 20 5 26 15 4 23 11 20 19 -3 8 9 20 28 29
39 19 48 21 48 9z m1956 -2 c3 -6 15 -8 27 -5 13 3 17 2 10 -5 -12 -12 -5 -51
7 -44 9 6 15 -36 30 -209 6 -65 13 -123 16 -128 3 -5 2 -14 -4 -21 -8 -11 -45
-219 -46 -259 0 -10 -4 -18 -9 -18 -5 0 -6 -13 -2 -29 l6 -29 -58 3 c-32 2
-61 4 -65 4 -12 1 -10 39 2 46 11 7 9 33 -3 53 -5 7 -13 9 -19 6 -11 -7 -1 35
12 50 5 5 4 19 -2 32 -11 24 -24 25 -73 9 -17 -6 -18 -5 -5 7 9 8 14 26 12 47
-2 18 1 38 6 43 11 11 -9 120 -27 142 -12 14 -11 20 9 41 22 23 21 38 -1 41
-5 1 -17 2 -26 4 -11 1 -13 3 -5 7 6 2 12 10 12 17 0 7 16 27 35 46 19 19 35
40 35 47 0 7 14 27 30 45 17 17 30 37 30 44 0 8 7 14 15 14 8 0 15 -4 15 -10
0 -5 7 -10 15 -10 8 0 15 5 15 11 0 5 -4 7 -10 4 -5 -3 -10 -1 -10 4 0 14 17
14 26 0z m1414 -11 c0 -4 -6 -8 -14 -8 -8 0 -17 4 -20 8 -2 4 4 8 15 8 10 0
19 -4 19 -8z m-2565 -7 c3 -5 1 -12 -5 -16 -5 -3 -10 1 -10 9 0 18 6 21 15 7z
m322 -3 c-7 -19 11 -60 23 -53 5 3 10 -3 10 -15 0 -19 -2 -18 -29 9 -41 42
-49 71 -21 71 14 0 20 -5 17 -12z m-52 -9 c10 -15 -1 -23 -20 -15 -9 3 -13 10
-10 16 8 13 22 13 30 -1z m1195 1 c0 -5 -4 -10 -10 -10 -5 0 -10 5 -10 10 0 6
5 10 10 10 6 0 10 -4 10 -10z m770 0 c0 -5 -9 -10 -21 -10 -11 0 -17 5 -14 10
3 6 13 10 21 10 8 0 14 -4 14 -10z m205 0 c-3 -5 -12 -7 -20 -3 -21 7 -19 13
6 13 11 0 18 -4 14 -10z m-2075 -15 c0 -8 -4 -15 -9 -15 -13 0 -22 16 -14 24
11 11 23 6 23 -9z m1210 5 c0 -5 -4 -10 -10 -10 -5 0 -10 5 -10 10 0 6 5 10
10 10 6 0 10 -4 10 -10z m972 -1 c13 -6 28 -20 34 -32 5 -13 16 -21 26 -19 12
2 16 -2 12 -13 -3 -8 -16 -16 -28 -16 -20 -2 -20 -2 2 -6 12 -2 22 -9 22 -14
0 -6 6 -17 14 -25 11 -11 16 -11 19 -1 3 7 6 5 6 -5 1 -10 6 -18 11 -18 13 0
13 -37 0 -45 -6 -3 -17 1 -26 9 -8 9 -24 16 -35 16 -10 0 -19 4 -19 9 0 5 -16
15 -35 22 -41 15 -47 34 -7 25 25 -5 26 -5 5 6 -13 6 -23 14 -23 18 0 4 -9 17
-20 30 -11 12 -17 26 -15 30 10 16 44 -3 53 -29 l9 -26 5 28 c4 23 1 30 -23
43 -45 23 -33 35 13 13z m-1122 -8 c0 -20 -13 -41 -25 -41 -7 0 -12 11 -12 25
0 18 5 25 18 25 11 0 19 -4 19 -9z m55 -17 c0 -5 -8 -10 -17 -12 -11 -2 -18 3
-18 11 0 9 8 14 18 13 9 -2 17 -7 17 -12z m260 7 c3 -5 1 -12 -5 -16 -5 -3
-10 1 -10 9 0 18 6 21 15 7z m-1454 -16 c-1 -15 -24 -12 -29 3 -3 9 2 13 12
10 10 -1 17 -7 17 -13z m1081 0 c0 -5 -5 -11 -11 -13 -6 -2 -11 4 -11 13 0 9
5 15 11 13 6 -2 11 -8 11 -13z m-2312 -19 c0 -3 -4 -8 -10 -11 -5 -3 -10 -1
-10 4 0 6 5 11 10 11 6 0 10 -2 10 -4z m2404 -5 c7 -11 -22 -23 -35 -15 -5 3
-7 10 -4 15 8 12 32 12 39 0z m1016 0 c0 -5 -6 -11 -12 -14 -10 -3 -10 -7 0
-20 8 -9 11 -20 8 -26 -7 -11 -46 -2 -46 11 0 5 5 6 10 3 6 -3 10 1 10 9 0 9
-4 16 -10 16 -5 0 -10 5 -10 11 0 6 7 9 15 5 8 -3 15 -1 15 4 0 6 5 10 10 10
6 0 10 -4 10 -9z m-1090 -9 c0 -4 -9 -13 -20 -20 -18 -11 -20 -10 -20 8 0 13
7 20 20 20 11 0 20 -3 20 -8z m1270 -22 c0 -5 -4 -10 -10 -10 -5 0 -10 5 -10
10 0 6 5 10 10 10 6 0 10 -4 10 -10z m-3613 -22 c-3 -8 -6 -5 -6 6 -1 11 2 17
5 13 3 -3 4 -12 1 -19z m1335 0 c-7 -7 -12 -8 -12 -2 0 6 3 14 7 17 3 4 9 5
12 2 2 -3 -1 -11 -7 -17z m2308 12 c0 -5 -4 -10 -10 -10 -5 0 -10 5 -10 10 0
6 5 10 10 10 6 0 10 -4 10 -10z m-3520 -30 c-12 -8 -12 -10 -1 -10 13 0 12
-25 -4 -62 -4 -11 -3 -18 4 -18 6 0 11 7 11 15 0 8 7 15 15 15 19 0 19 -10 -1
-38 -8 -12 -12 -22 -7 -22 21 -1 52 -39 58 -72 7 -37 7 -37 -45 -60 -39 -17
-50 -26 -47 -40 3 -12 0 -18 -11 -18 -9 0 -27 -10 -40 -22 l-25 -23 12 23 c6
12 27 38 46 57 19 19 35 36 35 38 0 2 -16 9 -35 17 -19 8 -35 20 -35 28 0 8
-6 12 -13 9 -9 -3 -13 6 -14 30 0 20 3 30 7 23 6 -9 12 -8 28 5 20 18 20 18
-6 40 -23 19 -25 26 -15 46 l11 24 10 -25 c8 -18 11 -20 11 -7 1 10 8 20 17
24 8 3 13 12 10 19 -4 9 2 14 17 14 18 0 19 -2 7 -10z m567 -12 c-3 -8 -6 -5
-6 6 -1 11 2 17 5 13 3 -3 4 -12 1 -19z m1603 1 c0 -6 -4 -7 -10 -4 -5 3 -10
11 -10 16 0 6 5 7 10 4 6 -3 10 -11 10 -16z m-959 -12 c-10 -9 -11 -8 -5 6 3
10 9 15 12 12 3 -3 0 -11 -7 -18z m-1411 9 c0 -2 -3 -11 -6 -20 -9 -23 -34
-20 -34 4 0 13 7 20 20 20 11 0 20 -2 20 -4z m343 -11 c6 -7 10 -6 14 3 6 16
23 15 23 -2 0 -11 -11 -13 -44 -9 -25 2 -47 0 -51 -6 -3 -6 -10 -11 -16 -11
-5 0 -1 8 9 19 18 20 52 23 65 6z m-397 -43 c-4 -3 -11 0 -16 8 -15 24 -11 33
6 15 9 -9 13 -19 10 -23z m3071 16 c-3 -8 -6 -5 -6 6 -1 11 2 17 5 13 3 -3 4
-12 1 -19z m546 15 c-7 -2 -19 -2 -25 0 -7 3 -2 5 12 5 14 0 19 -2 13 -5z
m226 -12 c6 -10 7 -21 4 -25 -13 -12 -31 -6 -36 13 -9 34 16 43 32 12z m-3191
-3 c-3 -7 -13 -15 -24 -17 -16 -3 -17 -1 -5 13 16 19 34 21 29 4z m-526 -39
c4 -23 -1 -35 -19 -49 -14 -11 -22 -24 -19 -29 4 -6 -3 -15 -15 -22 -43 -22
-95 29 -84 82 8 34 25 29 25 -7 0 -17 5 -24 20 -24 15 0 20 7 20 25 0 28 36
66 55 59 7 -3 15 -19 17 -35z m329 30 c10 -6 10 -9 2 -9 -7 0 -13 -4 -13 -10
0 -5 7 -10 16 -10 13 0 14 -3 5 -13 -10 -13 -65 -16 -77 -5 -3 4 4 9 15 13 17
5 18 9 8 20 -8 9 -16 10 -24 3 -10 -8 -13 -6 -13 5 0 17 57 21 81 6z m3009 1
c0 -5 -4 -10 -10 -10 -5 0 -10 5 -10 10 0 6 5 10 10 10 6 0 10 -4 10 -10z m21
-13 c-10 -9 -11 -8 -5 6 3 10 9 15 12 12 3 -3 0 -11 -7 -18z m39 13 c0 -5 -4
-10 -10 -10 -5 0 -10 5 -10 10 0 6 5 10 10 10 6 0 10 -4 10 -10z m138 -12 c8
-18 11 -19 11 -5 1 26 21 20 21 -7 0 -13 -10 -30 -22 -39 l-23 -15 29 -25 c28
-25 29 -25 10 -50 -11 -14 -34 -31 -51 -38 -36 -14 -42 -26 -18 -36 9 -3 27
-22 40 -42 16 -22 25 -29 25 -19 0 10 -10 26 -21 37 -13 12 -19 26 -16 35 8
21 27 20 28 -1 0 -11 3 -13 6 -5 7 18 25 15 22 -5 -2 -30 2 -59 8 -45 2 6 13
12 24 12 18 0 18 -1 2 -20 -10 -11 -26 -20 -36 -20 -12 0 -16 -4 -11 -12 4 -7
-4 -3 -18 10 -13 12 -32 22 -42 22 -13 0 -16 5 -11 20 5 14 1 22 -12 26 -53
18 -72 31 -75 49 -5 29 16 65 49 86 15 10 23 19 17 19 -7 0 -14 9 -17 20 -3
13 0 20 9 20 8 0 14 -8 14 -17 0 -13 3 -14 12 -5 8 8 8 15 -1 25 -15 19 -4 47
19 47 9 0 22 -10 28 -22z m222 10 c0 -19 -18 -43 -25 -36 -9 9 4 48 16 48 5 0
9 -6 9 -12z m-3332 -22 c2 -3 1 -10 -3 -16 -5 -8 -10 -8 -20 0 -9 8 -15 8 -20
0 -10 -16 -24 -12 -22 8 1 15 8 18 31 15 16 -1 31 -5 34 -7z m546 -9 c-3 -9
-12 -13 -20 -10 -19 7 -18 21 4 25 22 5 24 4 16 -15z m44 11 c-2 -7 2 -13 7
-14 6 0 25 -7 43 -14 25 -9 30 -15 20 -21 -7 -5 -8 -9 -3 -9 6 0 3 -5 -5 -10
-8 -5 -15 -14 -15 -20 0 -5 -4 -10 -10 -11 -17 -2 -47 -20 -41 -26 8 -9 -23
-63 -37 -63 -6 0 -25 -11 -42 -25 -23 -19 -26 -24 -12 -25 9 0 17 6 17 13 0 8
4 7 11 -3 9 -13 10 -12 5 3 -9 27 42 44 59 20 7 -9 11 -23 8 -30 -3 -7 0 -13
6 -13 6 0 11 5 11 10 0 24 20 7 21 -17 0 -24 1 -25 8 -8 5 11 5 27 0 35 -4 8
-12 35 -18 60 -10 45 -1 65 24 56 15 -5 37 21 24 29 -7 5 -6 11 2 21 8 10 15
11 24 4 6 -5 15 -7 18 -3 4 3 16 -2 27 -12 18 -16 24 -14 21 7 0 4 6 5 14 2
12 -5 11 -14 -6 -57 -11 -29 -25 -68 -31 -87 -9 -31 -12 -33 -19 -15 -7 17 -9
15 -8 -10 1 -16 1 -36 0 -42 -1 -19 -21 -16 -21 3 0 8 -4 13 -10 9 -5 -3 -6
-13 -3 -21 3 -9 0 -20 -8 -25 -10 -6 -8 -9 9 -9 36 0 81 -28 82 -51 0 -3 -11
-4 -25 -1 -14 2 -22 8 -19 13 3 5 -2 9 -10 9 -9 0 -16 -9 -16 -20 0 -17 7 -20
45 -20 29 0 45 -4 45 -12 1 -7 21 -46 45 -87 24 -41 41 -80 38 -87 -7 -18 -33
-26 -48 -14 -6 5 -14 7 -18 4 -11 -11 -45 7 -43 22 0 9 -10 23 -23 32 -24 16
-24 16 -19 -16 2 -18 1 -32 -4 -32 -5 0 -7 -4 -4 -9 3 -4 1 -22 -3 -39 -7 -22
-5 -36 5 -49 17 -23 19 -52 2 -35 -19 19 -28 14 -28 -18 0 -19 -7 -33 -19 -40
-11 -5 -21 -22 -23 -37 -2 -21 -8 -27 -22 -25 -11 2 -15 -1 -11 -7 4 -7 -6
-14 -24 -17 -17 -4 -31 -12 -31 -20 0 -7 -8 -18 -17 -23 -10 -6 -13 -11 -8
-11 6 0 3 -5 -5 -10 -10 -6 -11 -10 -2 -10 20 0 14 -25 -14 -50 -20 -20 -27
-22 -34 -11 -8 15 -4 37 12 58 13 16 -10 27 -27 13 -11 -9 -15 -9 -15 -1 0 6
4 11 10 11 5 0 14 9 20 21 9 16 8 24 -4 38 -9 10 -16 23 -16 29 0 7 -9 12 -20
12 -13 0 -24 10 -30 26 -9 22 -15 25 -38 20 -15 -3 -22 -3 -16 0 15 6 6 46
-13 57 -7 4 -13 15 -13 23 0 9 5 12 11 8 8 -4 7 0 -1 15 -6 12 -15 19 -21 16
-5 -4 -7 -10 -5 -14 3 -4 0 -13 -5 -21 -8 -11 -9 -5 -6 20 5 37 -9 80 -30 93
-17 10 -17 44 0 50 8 3 3 11 -13 25 l-25 20 -18 -36 c-9 -20 -14 -45 -11 -56
6 -19 5 -20 -7 -4 -16 20 -35 12 -40 -17 -3 -13 -14 -21 -32 -23 -23 -3 -27 0
-27 23 0 18 6 29 20 32 11 3 20 14 20 25 0 11 9 22 20 25 35 9 20 35 -32 57
-19 8 -38 24 -41 36 -7 27 13 25 41 -5 14 -15 29 -22 39 -18 12 5 14 3 8 -7
-5 -9 -4 -11 4 -6 13 8 5 47 -11 57 -6 4 -13 28 -15 53 -6 47 -6 47 23 44 24
-3 29 0 27 19 -1 11 4 26 12 33 11 9 12 17 4 31 -6 13 -6 19 0 19 6 0 15 -9
21 -20 8 -15 17 -19 34 -14 15 3 29 -1 40 -11 9 -9 16 -15 17 -13 14 62 16
109 4 105 -5 -2 -10 -15 -9 -30 0 -14 -4 -23 -8 -21 -5 3 -15 0 -23 -6 -8 -7
-15 -9 -15 -5 0 4 -8 1 -17 -6 -14 -12 -14 -10 1 14 18 27 33 38 21 15 -4 -7
0 -4 9 7 8 11 21 27 28 35 7 8 12 17 11 20 -1 3 7 6 17 6 14 0 17 -6 13 -29
-3 -20 2 -36 16 -51 17 -18 18 -23 6 -23 -8 0 -15 4 -15 9 0 5 -5 6 -10 3 -19
-12 2 -27 31 -21 20 4 31 1 37 -10 7 -12 10 -13 19 -2 19 22 20 68 2 68 -6 0
-8 -9 -4 -21 5 -16 3 -20 -6 -17 -8 3 -13 15 -12 26 2 18 -2 20 -27 17 -30 -4
-40 8 -19 21 6 3 9 15 6 25 -3 11 -2 19 2 19 16 0 20 -13 10 -31 -8 -15 -6
-19 7 -19 9 0 18 9 21 20 7 25 23 26 23 1 0 -10 7 -24 15 -31 9 -8 15 -8 15
-2 0 6 -6 13 -12 15 -8 3 -6 6 5 6 18 1 25 21 7 21 -5 0 -10 5 -10 10 0 6 7
10 15 10 10 0 15 -10 15 -32 1 -26 3 -30 10 -16 14 23 9 70 -7 64 -14 -6 -16
9 -4 37 7 18 8 18 21 1 8 -10 10 -15 3 -11 -6 4 -14 3 -17 -1 -3 -5 7 -9 22
-8 25 1 27 -2 28 -42 1 -23 -3 -45 -7 -48 -5 -3 -9 1 -9 8 0 9 -3 9 -10 -2
-14 -22 -12 -27 10 -25 28 2 33 10 32 47 0 18 3 35 7 38 5 3 11 16 15 30 4 14
4 20 -1 13 -5 -7 -14 -9 -23 -3 -11 7 -11 11 -1 24 8 9 10 16 5 16 -5 0 -2 5
6 10 19 12 20 12 18 -2z m2342 -11 c12 3 20 0 20 -7 0 -7 -7 -10 -15 -6 -8 3
-15 0 -15 -7 0 -9 -3 -8 -9 1 -7 11 -9 10 -14 -3 -4 -9 -3 -13 3 -10 6 3 10 1
10 -5 0 -6 4 -9 9 -5 5 3 13 0 17 -6 5 -8 -3 -10 -25 -7 -17 3 -31 0 -31 -6 0
-6 -4 -6 -11 1 -8 8 -7 17 3 34 16 28 32 42 36 30 2 -5 12 -7 22 -4z m302 -4
c10 -9 18 -29 18 -45 0 -22 5 -28 20 -28 12 0 20 6 19 13 -3 26 1 47 11 47 19
0 11 -76 -9 -94 -23 -21 -76 -18 -76 4 0 8 -8 21 -17 28 -21 15 -24 62 -6 80
15 15 18 15 40 -5z m-3208 -35 c5 -21 3 -28 -8 -28 -19 0 -26 21 -14 43 11 22
13 21 22 -15z m-229 12 c3 -6 -1 -7 -9 -4 -18 7 -21 14 -7 14 6 0 13 -4 16
-10z m644 -16 c-17 -18 -19 -23 -6 -18 11 4 17 1 17 -8 0 -8 -7 -15 -15 -15
-8 0 -15 4 -15 9 0 5 -6 6 -12 2 -16 -10 11 26 32 43 25 21 25 14 -1 -13z
m1777 -23 c-12 -4 -26 -22 -26 -33 0 -14 28 -8 34 7 3 8 12 12 19 9 8 -3 17 3
21 13 6 15 8 15 16 3 14 -22 12 -43 -3 -37 -9 3 -14 -7 -16 -34 -1 -22 3 -39
8 -39 6 0 10 10 8 22 -1 14 4 23 16 26 12 2 17 -3 17 -20 1 -22 1 -22 15 -4
19 25 19 36 1 36 -8 0 -18 5 -22 12 -4 6 -3 8 4 4 16 -10 25 13 12 29 -7 8 -8
15 -3 15 14 0 53 -39 52 -53 0 -9 -2 -9 -6 1 -9 23 -18 12 -17 -20 1 -27 5
-34 25 -36 13 -2 31 -9 39 -15 13 -11 13 -10 1 6 -9 12 -10 17 -2 17 7 0 9 5
6 10 -3 6 3 10 14 10 12 0 21 -7 21 -15 0 -8 4 -15 9 -15 5 0 12 -11 15 -25 4
-14 10 -23 15 -21 11 7 36 -22 27 -31 -3 -3 -6 -2 -6 4 0 6 -13 13 -30 17 -24
4 -30 11 -30 30 0 14 -4 27 -9 31 -6 3 -10 -12 -9 -35 0 -22 4 -43 9 -46 5 -3
6 -10 3 -16 -4 -5 6 -2 20 7 21 14 30 15 39 6 8 -8 16 -5 33 16 l21 27 1 -34
c2 -84 0 -79 35 -77 17 1 34 5 37 9 3 4 15 9 25 11 11 1 26 6 33 10 7 5 12 3
12 -3 0 -7 7 -10 15 -6 8 3 15 1 15 -3 0 -5 -5 -11 -11 -13 -6 -2 -7 -12 -1
-28 l9 -24 7 27 c9 39 27 23 24 -21 -3 -34 -6 -37 -37 -40 -18 -1 -40 3 -48 9
-7 7 -16 9 -20 6 -7 -8 -33 11 -33 24 0 16 18 9 22 -8 3 -11 6 -5 9 15 7 41
-17 44 -32 5 -6 -16 -20 -45 -31 -66 -11 -21 -17 -41 -14 -45 3 -3 6 0 6 8 0
9 4 9 13 2 8 -7 18 -6 31 4 11 8 14 14 8 14 -27 0 -10 17 17 18 l30 1 -15 -41
c-12 -33 -12 -43 -2 -51 10 -7 10 -10 -1 -14 -10 -4 -11 -7 -1 -13 7 -4 9 -13
6 -19 -10 -16 -26 -14 -26 4 0 8 -4 15 -9 15 -6 0 -11 14 -13 32 -3 31 -4 31
-21 14 -16 -17 -16 -20 -2 -35 8 -10 15 -26 15 -35 0 -12 5 -16 15 -12 21 8
40 -31 24 -50 -17 -21 -54 -14 -54 11 0 25 -22 40 -38 27 -9 -8 -13 -1 -14 26
-2 31 -33 84 -33 55 0 -6 -10 -13 -21 -16 -20 -5 -20 -7 -5 -22 20 -21 20 -31
-1 -47 -28 -20 -42 -53 -36 -79 l6 -22 23 28 c15 19 32 28 53 29 17 0 31 5 31
10 0 5 3 6 7 2 4 -4 8 -15 8 -24 0 -9 5 -16 11 -15 13 2 6 -46 -9 -65 -6 -8
-23 -11 -43 -9 -19 3 -35 0 -37 -7 -5 -16 -67 49 -67 70 0 14 -3 15 -12 6 -8
-8 -8 -15 1 -26 10 -11 8 -18 -7 -33 -25 -24 -35 -53 -19 -54 7 0 1 -4 -11
-10 -13 -5 -28 -7 -32 -4 -5 3 -14 -4 -20 -15 -6 -11 -16 -20 -23 -20 -18 0
-47 -37 -47 -59 0 -10 7 -24 16 -31 25 -22 37 -50 21 -50 -8 0 -17 9 -20 20
-3 11 -10 20 -17 20 -7 0 -9 -8 -5 -22 4 -13 7 -25 7 -28 1 -35 -15 -39 -49
-11 -14 12 -20 25 -16 39 3 13 -2 27 -16 38 -11 10 -18 21 -16 24 2 4 -13 12
-33 18 -31 9 -38 17 -40 39 -1 16 -10 34 -19 40 -14 11 -18 21 -22 66 -1 5
-10 5 -21 2 -24 -8 -26 2 -4 26 11 12 13 27 9 53 -6 32 -10 35 -32 31 l-25 -4
26 24 c27 25 34 45 16 45 -5 0 -10 -10 -11 -22 0 -13 -3 -17 -6 -10 -7 18 -20
15 -26 -7 -8 -34 -107 -33 -107 1 0 22 135 228 147 224 6 -3 14 2 17 10 3 8 9
14 13 13 21 -4 29 3 31 26 1 14 -3 25 -8 25 -5 0 -7 -7 -4 -15 4 -8 2 -15 -3
-15 -16 0 -32 22 -26 36 3 8 1 14 -5 14 -16 0 -20 59 -5 71 7 6 13 8 13 3 0
-5 5 -1 11 10 9 14 8 20 -2 27 -21 13 -27 11 -25 -7 3 -37 -23 -22 -37 21 -9
25 -12 43 -6 40 5 -4 9 -1 9 4 0 6 4 11 10 11 5 0 7 -8 3 -17 -6 -17 -5 -17
13 -1 12 10 34 16 57 14 27 -1 36 2 32 12 -2 7 0 10 5 7 6 -3 10 -2 10 4 0 6
16 13 35 17 19 3 38 11 41 16 4 5 12 -1 18 -14 8 -16 9 -24 2 -27z m38 28 c-8
-14 -24 -10 -24 6 0 9 6 12 15 9 8 -4 12 -10 9 -15z m571 7 c18 -17 7 -30 -12
-14 -11 9 -16 9 -23 -1 -6 -10 -9 -10 -15 -1 -4 7 -1 16 6 21 19 12 28 11 44
-5z m-2865 0 c0 -2 -8 -10 -17 -17 -16 -13 -17 -12 -4 4 13 16 21 21 21 13z
m-97 -34 c-1 -36 -2 -36 -23 -17 -11 10 -20 13 -20 7 0 -6 5 -14 10 -17 6 -3
10 -15 10 -27 0 -14 5 -18 15 -14 11 4 15 -1 15 -19 0 -18 4 -23 15 -19 8 4
22 1 30 -6 8 -7 21 -10 30 -6 9 3 19 -3 25 -14 8 -16 15 -18 35 -10 16 6 25 5
29 -3 3 -8 8 -6 16 6 13 21 34 23 26 2 -3 -10 3 -17 19 -21 30 -7 46 2 38 23
-4 11 -3 14 5 9 7 -4 12 -16 12 -26 0 -10 6 -20 13 -23 6 -2 9 -8 5 -12 -4 -4
-29 -2 -55 5 -26 7 -55 14 -64 16 -34 9 -116 -99 -104 -137 4 -11 11 -19 16
-19 5 0 9 -6 9 -13 0 -13 58 -40 70 -32 4 2 6 -20 6 -50 -1 -30 0 -55 1 -55
16 0 30 15 26 27 -4 11 -2 14 5 9 15 -9 15 -1 0 27 -10 20 -10 21 7 7 16 -14
17 -13 11 6 -7 23 19 30 28 7 7 -18 -4 -44 -16 -37 -6 4 -8 -2 -3 -15 4 -13 2
-21 -5 -21 -6 0 -15 -11 -20 -25 -10 -27 -30 -34 -30 -10 0 8 -4 15 -10 15 -5
0 -10 -4 -10 -8 0 -5 -15 -15 -32 -24 -59 -27 -117 7 -118 69 0 36 21 53 64
53 29 0 43 15 21 24 -12 4 -40 -2 -74 -17 -2 -1 -5 6 -7 16 -1 9 2 15 6 12 5
-3 12 0 15 6 11 17 1 19 -26 5 -20 -10 -27 -10 -37 0 -7 7 -12 17 -12 22 0 6
-9 12 -20 15 -11 3 -20 13 -20 22 0 11 5 15 14 12 8 -3 16 2 19 14 3 10 1 19
-4 19 -5 0 -9 9 -9 20 0 10 -7 23 -17 28 -15 9 -14 11 4 20 11 6 23 8 27 5 6
-6 7 0 11 52 3 37 -3 49 -19 36 -12 -10 -13 -8 -17 54 -2 28 26 56 51 52 8 -1
14 -12 13 -25z m183 -27 c-8 -8 -20 -15 -26 -15 -6 0 -8 -4 -5 -10 3 -5 -1
-10 -9 -10 -21 0 -29 17 -10 24 8 3 12 11 9 16 -4 6 -3 10 2 9 28 -5 43 3 44
24 l2 22 4 -23 c2 -12 -2 -29 -11 -37z m48 31 c-8 -20 26 -29 46 -11 21 19 54
19 70 0 17 -20 5 -33 -40 -45 -22 -6 -44 -20 -50 -30 -6 -11 -18 -20 -28 -19
-10 0 -12 3 -4 6 6 2 12 11 12 18 0 7 7 16 16 19 13 5 14 9 4 22 -11 12 -15
12 -21 2 -5 -7 -9 -11 -10 -8 -8 42 -8 60 0 60 6 0 8 -6 5 -14z m31 4 c3 -5 1
-10 -4 -10 -6 0 -11 5 -11 10 0 6 2 10 4 10 3 0 8 -4 11 -10z m2645 -9 c0 -11
-7 -26 -15 -35 -14 -14 -14 -17 5 -28 26 -17 26 -38 -1 -38 -11 0 -18 4 -15 9
3 5 -1 14 -9 21 -13 11 -13 15 0 33 8 12 15 29 15 39 0 10 5 18 10 18 6 0 10
-9 10 -19z m210 -1 c-8 -5 -17 -7 -19 -4 -3 3 1 9 9 14 8 5 17 7 19 4 3 -3 -1
-9 -9 -14z m-3060 0 c0 -5 -4 -10 -10 -10 -5 0 -10 5 -10 10 0 6 5 10 10 10 6
0 10 -4 10 -10z m372 -35 c-3 -5 -7 -4 -10 3 -7 22 -22 13 -22 -14 0 -14 4
-23 10 -19 6 3 10 2 10 -3 0 -15 -54 -22 -62 -9 -13 21 -38 -24 -26 -46 5 -10
7 -21 4 -24 -9 -9 -38 6 -31 16 3 5 1 12 -5 16 -14 9 -12 25 3 23 6 -2 11 5 9
15 -2 12 4 17 21 17 22 0 43 23 39 42 -1 4 5 5 13 2 10 -4 15 0 15 12 0 16 1
16 19 -2 10 -10 16 -23 13 -29z m2868 35 c0 -5 -2 -10 -4 -10 -3 0 -8 5 -11
10 -3 6 -1 10 4 10 6 0 11 -4 11 -10z m-2800 -10 c0 -5 -4 -10 -10 -10 -5 0
-10 5 -10 10 0 6 5 10 10 10 6 0 10 -4 10 -10z m2465 -1 c11 -17 -1 -21 -15
-4 -8 9 -8 15 -2 15 6 0 14 -5 17 -11z m-135 -17 c0 -4 -11 -7 -25 -7 -29 0
-34 12 -7 18 19 4 32 0 32 -11z m30 11 c0 -5 -5 -15 -10 -23 -7 -12 -9 -10 -7
8 1 19 17 33 17 15z m228 -5 c5 -7 9 -26 7 -43 -3 -43 -4 -45 -18 -45 -9 0
-14 -14 -15 -40 -2 -36 1 -42 26 -51 24 -9 25 -12 10 -20 -10 -6 -18 -19 -18
-29 0 -11 -4 -20 -9 -20 -4 0 -6 -12 -3 -26 3 -18 7 -22 13 -13 4 8 11 10 15
6 4 -4 -7 -21 -24 -38 -37 -37 -38 -43 -13 -68 19 -19 19 -18 25 10 7 35 21
38 30 7 5 -19 8 -21 16 -8 8 13 10 13 10 -2 0 -23 -18 -32 -35 -18 -12 10 -15
9 -15 -3 0 -9 -9 -21 -20 -27 -11 -6 -20 -18 -20 -28 0 -15 2 -15 10 -2 8 11
9 7 4 -15 -4 -16 -11 -31 -16 -33 -4 -2 -8 -11 -8 -19 0 -10 6 -13 15 -9 14 5
14 4 0 -16 -8 -13 -15 -29 -15 -38 0 -13 1 -13 10 0 14 22 13 -5 -1 -32 -8
-15 -8 -19 0 -14 7 4 11 -1 11 -13 0 -12 -6 -21 -13 -21 -21 0 -38 -45 -24
-59 9 -9 8 -10 -7 -5 -13 5 -17 4 -13 -3 19 -31 -25 -57 -51 -31 -9 9 -12 9
-12 -1 0 -8 8 -20 18 -27 16 -13 16 -13 -2 -14 -12 0 -16 -5 -12 -16 3 -9 6
-20 6 -25 0 -5 7 -9 15 -9 8 0 15 9 15 20 0 11 5 20 10 20 6 0 10 -13 10 -30
0 -28 -2 -30 -40 -30 -34 0 -40 3 -46 26 -4 14 -2 30 5 37 6 6 11 20 11 32 0
12 6 27 13 34 7 8 7 11 1 8 -7 -4 -19 4 -28 18 -9 14 -22 22 -30 19 -9 -3 -17
3 -21 15 -4 13 -15 21 -29 21 -13 0 -29 7 -36 15 -7 8 -9 15 -5 15 5 0 1 8 -8
18 -18 20 -18 75 0 68 16 -6 25 26 17 58 -5 20 -2 26 9 26 12 0 16 -10 15 -42
-1 -59 7 -101 21 -106 6 -2 11 -10 11 -18 0 -16 9 -18 29 -5 11 7 9 14 -11 33
-26 27 -28 59 -2 37 17 -14 97 -6 102 10 5 15 29 14 35 -1 7 -23 19 82 12 112
-3 16 -2 37 3 47 13 25 5 43 -24 53 -13 5 -24 14 -24 20 0 6 4 9 9 6 5 -3 11
1 15 9 7 19 -8 19 -23 1 -13 -16 1 -56 19 -56 5 0 7 -7 3 -15 -5 -14 -8 -14
-29 0 -15 10 -33 13 -50 9 -34 -9 -13 -24 33 -24 40 0 53 -22 41 -68 -7 -25
-18 -37 -45 -48 -31 -14 -39 -14 -69 1 -42 20 -46 27 -45 73 1 20 2 45 2 55 0
9 4 15 8 12 12 -7 61 18 61 33 0 6 6 12 14 12 27 0 27 36 0 83 -14 26 -34 53
-45 61 -11 8 -17 20 -14 29 4 8 2 18 -4 22 -13 7 -15 45 -3 45 5 0 8 -10 8
-22 -1 -30 44 -55 57 -32 6 11 17 14 33 10 14 -4 24 -2 24 4 0 5 12 10 26 10
20 0 25 4 20 16 -4 10 0 18 13 21 11 3 22 12 25 21 3 10 9 24 13 32 5 13 4 13
-10 1 -10 -8 -24 -10 -34 -6 -17 7 -16 8 2 15 11 5 14 9 7 9 -20 1 -3 21 17
21 10 0 23 -6 29 -12z m-3358 -17 c0 -5 -7 -14 -15 -21 -16 -14 -18 -10 -9 14
6 17 24 22 24 7z m311 -5 c5 3 9 0 9 -6 0 -7 -7 -9 -16 -6 -9 3 -18 6 -20 6
-3 0 -2 5 2 12 6 9 9 9 12 0 2 -7 8 -10 13 -6z m173 -7 c-6 -11 -24 -2 -24 11
0 5 7 7 15 4 8 -4 12 -10 9 -15z m2396 17 c0 -2 -7 -7 -16 -10 -8 -3 -12 -2
-9 4 6 10 25 14 25 6z m51 -10 c5 3 8 2 7 -3 -5 -18 28 -53 51 -53 20 0 21 -2
11 -15 -7 -8 -17 -12 -23 -8 -6 4 -26 7 -44 6 -18 0 -33 4 -33 8 0 5 4 9 10 9
14 0 6 43 -10 48 -10 4 -9 6 1 13 8 5 15 4 17 -1 2 -6 8 -8 13 -4z m109 -1 c9
-11 16 -12 25 -5 6 5 15 7 18 3 10 -9 9 -25 -1 -19 -4 2 -15 -2 -25 -9 -17
-13 -17 -14 3 -20 12 -4 19 -9 16 -12 -3 -4 -1 -12 5 -20 20 -24 -7 -14 -31
12 -13 14 -31 25 -40 25 -8 0 -26 7 -39 17 -23 15 -23 17 -6 30 25 17 60 17
75 -2z m160 5 c0 -5 -5 -10 -11 -10 -5 0 -7 5 -4 10 3 6 8 10 11 10 2 0 4 -4
4 -10z m-365 -10 c-3 -5 -13 -10 -21 -10 -8 0 -14 -7 -14 -15 0 -8 -4 -15 -10
-15 -19 0 -10 31 13 40 30 12 39 12 32 0z m755 -22 c0 -6 -6 -5 -15 2 -8 7
-15 14 -15 16 0 2 7 1 15 -2 8 -4 15 -11 15 -16z m-690 8 c0 -3 -4 -8 -10 -11
-5 -3 -10 -1 -10 4 0 6 5 11 10 11 6 0 10 -2 10 -4z m-2830 -27 c0 -5 -9 -17
-20 -26 -11 -10 -20 -23 -20 -29 0 -12 -28 -39 -34 -33 -6 7 18 99 26 99 5 0
8 -6 8 -12 0 -7 5 -5 11 5 10 17 29 15 29 -4z m390 -4 c0 -33 -15 -33 -16 0
-1 14 2 25 7 25 5 0 9 -11 9 -25z m2660 16 c0 -6 -4 -13 -10 -16 -5 -3 -10 1
-10 9 0 9 5 16 10 16 6 0 10 -4 10 -9z m170 -1 c-8 -5 -19 -10 -25 -10 -5 0
-3 5 5 10 8 5 20 10 25 10 6 0 3 -5 -5 -10z m-3306 -26 c3 -8 2 -12 -4 -9 -6
3 -10 10 -10 16 0 14 7 11 14 -7z m3663 0 c-3 -3 -12 -4 -19 -1 -8 3 -5 6 6 6
11 1 17 -2 13 -5z m-3117 -18 c0 -2 -7 -6 -15 -10 -8 -3 -15 -1 -15 4 0 6 7
10 15 10 8 0 15 -2 15 -4z m-540 -27 c0 -4 -7 -6 -15 -3 -8 4 -15 10 -15 15 0
4 7 6 15 3 8 -4 15 -10 15 -15z m170 11 c0 -5 7 -10 14 -10 12 0 11 -8 -6 -40
-23 -43 -46 -50 -72 -24 -18 18 -21 40 -6 49 6 3 10 -1 10 -9 0 -28 28 -17 35
14 6 28 25 43 25 20z m2856 -6 c-3 -9 -6 -20 -6 -25 0 -5 -9 -9 -20 -9 -23 0
-24 4 -10 31 13 23 45 26 36 3z m168 4 c-3 -4 -9 -8 -15 -8 -5 0 -9 4 -9 8 0
5 7 9 15 9 8 0 12 -4 9 -9z m-3270 -14 c3 -8 2 -12 -4 -9 -6 3 -10 10 -10 16
0 14 7 11 14 -7z m3536 -64 c4 0 11 8 14 17 5 12 10 13 18 5 8 -8 7 -17 -4
-34 -24 -36 -52 -32 -74 10 -19 35 -19 36 1 56 l20 21 8 -37 c5 -21 12 -38 17
-38z m-370 53 c0 -10 -4 -14 -8 -8 -4 6 -11 13 -16 18 -5 4 -2 7 7 7 10 0 17
-8 17 -17z m-3203 -15 c-3 -8 -6 -5 -6 6 -1 11 2 17 5 13 3 -3 4 -12 1 -19z
m3157 7 c-9 -21 42 -20 54 1 10 18 32 11 32 -10 0 -8 -25 -20 -62 -29 -63 -16
-88 -14 -55 4 9 6 17 19 17 29 0 11 4 20 10 20 5 0 7 -7 4 -15z m-2516 -27
c16 3 22 -1 21 -15 0 -10 -3 -13 -6 -5 -9 24 -23 12 -23 -21 0 -39 -27 -59
-75 -55 -32 3 -38 17 -29 67 5 26 19 19 27 -14 4 -18 5 -18 14 5 8 19 7 26 -3
28 -8 2 -14 8 -14 14 0 5 7 8 15 5 8 -4 17 -1 21 5 5 8 10 7 18 -3 6 -8 21
-13 34 -11z m3169 0 c-3 -8 -6 -5 -6 6 -1 11 2 17 5 13 3 -3 4 -12 1 -19z
m-3687 -2 c0 -7 -7 -19 -15 -26 -16 -14 -21 -55 -5 -45 6 3 10 2 10 -4 0 -5
-6 -11 -12 -14 -18 -6 -39 3 -32 15 3 5 6 25 6 45 0 21 3 31 8 24 5 -10 9 -9
13 3 8 20 27 21 27 2z m3599 -38 c2 28 16 9 16 -23 0 -41 -14 -58 -35 -45 -10
7 -11 10 -2 10 6 0 12 9 12 20 0 21 -16 28 -22 9 -2 -7 -9 -5 -17 5 -12 14
-12 16 4 9 15 -5 17 -3 11 12 -4 11 -2 22 6 26 9 6 15 1 20 -14 3 -12 6 -16 7
-9z m-1192 16 c-3 -3 -12 -4 -19 -1 -8 3 -5 6 6 6 11 1 17 -2 13 -5z m-2392
-14 c-3 -5 -12 -10 -18 -10 -7 0 -6 4 3 10 19 12 23 12 15 0z m140 -10 c-3 -5
-12 -10 -18 -10 -7 0 -6 4 3 10 19 12 23 12 15 0z m-259 -44 c-9 -35 -33 -34
-34 2 0 29 17 47 32 32 5 -5 6 -20 2 -34z m642 27 c-2 -9 -8 -18 -15 -20 -7
-3 -9 3 -6 16 6 25 26 28 21 4z m-598 3 c0 -3 -4 -8 -10 -11 -5 -3 -10 -1 -10
4 0 6 5 11 10 11 6 0 10 -2 10 -4z m-110 -21 c0 -8 -4 -15 -10 -15 -5 0 -10 7
-10 15 0 8 5 15 10 15 6 0 10 -7 10 -15z m3600 5 c0 -5 -2 -10 -4 -10 -3 0 -8
5 -11 10 -3 6 -1 10 4 10 6 0 11 -4 11 -10z m262 -25 c-5 -25 -8 -29 -21 -20
-19 11 -13 47 7 43 11 -2 16 -11 14 -23z m-3607 -39 c6 -19 6 -29 -2 -34 -6
-4 -14 -19 -18 -33 -5 -22 -2 -27 16 -32 13 -4 20 -9 16 -13 -10 -11 -57 17
-57 34 0 10 -6 12 -17 7 -37 -15 -53 -17 -53 -6 0 5 -6 8 -14 5 -10 -4 -16 4
-21 25 -11 50 17 74 29 25 9 -33 40 -29 44 6 2 14 10 32 18 41 8 9 11 20 7 24
-5 5 3 2 17 -7 14 -8 29 -27 35 -42z m3652 32 c-3 -8 -6 -5 -6 6 -1 11 2 17 5
13 3 -3 4 -12 1 -19z m-3197 -4 c0 -8 -5 -12 -10 -9 -6 4 -8 11 -5 16 9 14 15
11 15 -7z m3001 -35 c10 -12 16 -26 13 -31 -3 -5 -3 -16 0 -24 8 -21 46 0 46
26 0 26 16 26 23 0 3 -13 -3 -31 -18 -48 -21 -24 -26 -25 -44 -14 -28 16 -55
16 -48 -2 6 -15 -39 -44 -50 -32 -4 4 3 9 15 13 18 4 21 10 16 27 -4 11 -11
26 -16 33 -11 14 -1 54 16 65 18 12 27 9 47 -13z m-3337 -1 c2 -7 7 -22 12
-33 6 -18 8 -18 11 -2 6 24 30 21 36 -5 2 -13 3 -58 2 -100 -1 -43 1 -78 5
-78 5 0 10 8 12 17 3 15 5 15 18 1 9 -8 25 -18 36 -22 17 -5 20 -13 16 -38 -5
-32 -5 -32 19 -16 13 9 23 23 23 30 -1 8 7 20 17 27 26 15 25 -4 -1 -31 -24
-26 -26 -44 -6 -51 9 -4 17 2 21 14 4 10 12 19 19 19 8 0 13 13 14 31 1 39 19
60 32 39 5 -8 10 -10 11 -5 0 6 4 1 8 -10 5 -12 0 -34 -13 -62 -17 -35 -26
-43 -48 -43 -17 0 -28 -5 -28 -14 0 -8 -12 -19 -27 -25 -35 -13 -57 -31 -66
-53 -10 -27 -47 -23 -47 5 -1 33 -33 94 -47 90 -7 -3 -13 2 -13 11 0 9 6 15
13 13 13 -2 13 6 1 37 -5 12 -4 17 3 13 11 -7 14 74 2 83 -3 3 -9 19 -13 35
-5 22 -4 26 4 15 8 -12 10 -9 10 13 0 16 -4 26 -9 22 -5 -3 -16 3 -23 12 -7
10 -22 18 -32 18 -11 0 -21 6 -24 14 -3 10 0 12 12 8 11 -5 16 -1 16 13 0 22
18 27 24 8z m-48 -97 c-12 -18 -46 -13 -46 7 0 13 2 14 9 4 6 -11 10 -10 15 4
5 12 10 14 17 7 6 -6 8 -16 5 -22z m3271 -27 c-9 -9 -28 6 -21 18 4 6 10 6 17
-1 6 -6 8 -13 4 -17z m-2280 -6 c-3 -8 -6 -5 -6 6 -1 11 2 17 5 13 3 -3 4 -12
1 -19z m3 -28 c0 -5 -4 -10 -10 -10 -5 0 -10 5 -10 10 0 6 5 10 10 10 6 0 10
-4 10 -10z m-475 -10 c3 -5 1 -10 -4 -10 -6 0 -11 5 -11 10 0 6 2 10 4 10 3 0
8 -4 11 -10z m-85 -22 c-4 -40 0 -58 10 -58 6 0 10 7 10 15 0 7 8 18 18 24 15
9 15 11 -8 20 -19 7 -20 10 -7 10 44 2 82 -41 72 -81 -5 -20 -12 -23 -53 -23
-63 1 -75 10 -68 49 4 17 7 39 7 49 0 9 5 17 10 17 6 0 10 -10 9 -22z m1333 2
c-3 -12 -8 -19 -11 -16 -5 6 5 36 12 36 2 0 2 -9 -1 -20z m-1528 0 c3 -5 -1
-10 -10 -10 -9 0 -13 5 -10 10 3 6 8 10 10 10 2 0 7 -4 10 -10z m-428 -22 c-3
-8 -6 -5 -6 6 -1 11 2 17 5 13 3 -3 4 -12 1 -19z m153 -8 c0 -11 -4 -20 -10
-20 -5 0 -10 9 -10 20 0 11 5 20 10 20 6 0 10 -9 10 -20z m75 10 c7 -11 -29
-50 -46 -50 -8 0 -8 4 0 14 6 8 11 18 10 22 -4 24 23 35 36 14z m2995 -4 c0
-11 -19 -15 -25 -6 -3 5 1 10 9 10 9 0 16 -2 16 -4z m410 -5 c0 -6 -4 -13 -10
-16 -5 -3 -10 1 -10 9 0 9 5 16 10 16 6 0 10 -4 10 -9z m-200 -21 c0 -11 7
-20 15 -20 8 0 15 9 15 20 0 21 14 27 24 11 9 -14 -4 -41 -20 -41 -8 0 -14 -5
-14 -10 0 -11 -40 8 -52 25 -14 19 -8 35 12 35 13 0 20 -7 20 -20z m-540 -60
c0 -5 -2 -10 -4 -10 -3 0 -8 5 -11 10 -3 6 -1 10 4 10 6 0 11 -4 11 -10z
m-2154 -38 c-10 -2 -22 0 -28 6 -6 6 0 7 19 4 21 -5 23 -7 9 -10z m2163 -3 c5
8 11 9 15 3 3 -5 -1 -13 -10 -16 -28 -11 -40 -6 -41 15 -2 21 -1 21 12 3 12
-15 16 -16 24 -5z m86 -9 c3 -5 1 -10 -4 -10 -6 0 -11 5 -11 10 0 6 2 10 4 10
3 0 8 -4 11 -10z m-2995 -19 c0 -6 -4 -13 -10 -16 -5 -3 -10 1 -10 9 0 9 5 16
10 16 6 0 10 -4 10 -9z m52 -6 c0 -5 -5 -11 -11 -13 -6 -2 -11 4 -11 13 0 9 5
15 11 13 6 -2 11 -8 11 -13z m3545 -21 c-9 -9 -28 6 -21 18 4 6 10 6 17 -1 6
-6 8 -13 4 -17z m53 5 c0 -6 -4 -7 -10 -4 -5 3 -10 11 -10 16 0 6 5 7 10 4 6
-3 10 -11 10 -16z m-3245 -88 c10 -17 -13 -57 -34 -58 -12 -1 -21 2 -21 8 0 5
4 9 9 9 5 0 11 11 13 25 4 17 1 25 -9 25 -8 0 -11 5 -8 10 7 11 39 -2 50 -19z
m-65 -25 c0 -14 -4 -28 -10 -31 -6 -4 -10 7 -10 24 0 17 5 31 10 31 6 0 10
-11 10 -24z m550 -16 c0 -5 -5 -10 -11 -10 -5 0 -7 5 -4 10 3 6 8 10 11 10 2
0 4 -4 4 -10z m-877 -187 c-4 -10 -9 -11 -16 -4 -5 5 -7 18 -3 28 6 14 9 15
16 4 4 -8 6 -21 3 -28z m-66 5 c-3 -8 -6 -5 -6 6 -1 11 2 17 5 13 3 -3 4 -12
1 -19z m3683 2 c0 -19 -11 -26 -23 -14 -8 8 3 34 14 34 5 0 9 -9 9 -20z m52
-22 c-9 -9 -12 -7 -12 12 0 19 3 21 12 12 9 -9 9 -15 0 -24z m-2162 -5 c0 -19
-3 -24 -10 -17 -6 6 -8 18 -4 27 9 24 14 21 14 -10z m-1290 -14 c0 -27 19 -24
30 6 10 27 24 32 36 13 9 -14 -38 -53 -65 -55 -20 -2 -34 28 -24 53 7 19 23 7
23 -17z m3130 0 c0 -14 5 -19 18 -17 9 2 18 9 18 16 3 24 4 26 15 15 6 -6 8
-21 4 -33 -6 -19 -12 -21 -39 -16 -32 6 -59 32 -50 47 10 17 34 9 34 -12z
m-2607 -5 c-3 -15 -20 -15 -26 0 -4 9 0 13 11 12 9 -2 16 -7 15 -12z m2142 -6
c-9 17 10 15 24 -2 10 -12 8 -19 -9 -36 -12 -12 -25 -18 -28 -14 -4 3 -1 9 6
11 20 8 14 20 -14 27 -21 6 -24 9 -14 22 11 12 14 12 27 -3 8 -10 12 -12 8 -5z
m-2175 -20 c0 -12 -1 -19 -3 -17 -1 2 -9 12 -16 22 -12 14 -11 17 3 17 10 0
16 -8 16 -22z m-480 -68 c0 -5 -2 -10 -4 -10 -3 0 -8 5 -11 10 -3 6 -1 10 4
10 6 0 11 -4 11 -10z m3154 -11 c-3 -5 -10 -7 -15 -3 -5 3 -7 10 -3 15 3 5 10
7 15 3 5 -3 7 -10 3 -15z m220 -58 l-7 -26 -7 30 c-3 17 -2 39 4 50 10 19 11
19 14 -4 2 -12 0 -35 -4 -50z m-2088 7 c-7 -18 -11 -40 -9 -48 3 -10 -1 -9
-11 4 -14 17 -13 22 5 47 27 38 31 37 15 -3z"/>
<path d="M2243 3475 c0 -14 2 -25 6 -25 10 0 11 39 2 45 -5 2 -8 -7 -8 -20z"/>
<path d="M2372 3416 c1 -14 6 -22 10 -20 12 7 10 44 -2 44 -5 0 -9 -11 -8 -24z"/>
<path d="M2396 3375 c-9 -26 -7 -32 5 -12 6 10 9 21 6 23 -2 3 -7 -2 -11 -11z"/>
<path d="M2365 3370 c3 -5 8 -10 11 -10 2 0 4 5 4 10 0 6 -5 10 -11 10 -5 0
-7 -4 -4 -10z"/>
<path d="M2398 3174 c-4 -6 -12 -24 -18 -40 l-11 -29 21 23 c12 12 20 30 18
40 -2 11 -6 13 -10 6z"/>
<path d="M1985 2699 c-4 -6 -5 -12 -2 -15 2 -3 7 2 10 11 7 17 1 20 -8 4z"/>
<path d="M1956 2595 c4 -8 15 -15 26 -15 17 0 18 3 8 15 -7 8 -19 15 -26 15
-8 0 -11 -6 -8 -15z"/>
<path d="M1517 2540 c-35 -27 -41 -53 -23 -89 18 -33 89 -95 127 -109 24 -9
25 -8 27 24 3 37 0 39 -28 24 -14 -8 -25 -4 -49 16 -17 14 -30 28 -29 32 1 4
-2 22 -6 40 -6 24 -3 40 8 57 20 30 8 32 -27 5z"/>
<path d="M1866 2429 c6 -11 44 -12 44 -1 0 4 -11 8 -25 8 -14 1 -22 -2 -19 -7z"/>
<path d="M1605 2410 c-8 -13 5 -13 25 0 13 8 13 10 -2 10 -9 0 -20 -4 -23 -10z"/>
<path d="M1555 2310 c-3 -5 1 -10 9 -10 9 0 16 5 16 10 0 6 -4 10 -9 10 -6 0
-13 -4 -16 -10z"/>
<path d="M1600 2230 c0 -5 7 -10 15 -10 8 0 15 5 15 10 0 6 -7 10 -15 10 -8 0
-15 -4 -15 -10z"/>
<path d="M1895 2210 c-3 -5 -1 -10 4 -10 6 0 11 5 11 10 0 6 -2 10 -4 10 -3 0
-8 -4 -11 -10z"/>
<path d="M1622 3164 c-7 -8 -10 -19 -6 -26 5 -7 10 -3 16 12 10 28 7 33 -10
14z"/>
<path d="M1600 3086 c-6 -17 -7 -34 -1 -44 7 -13 11 -9 16 21 9 46 -1 60 -15
23z"/>
<path d="M2497 3083 c-4 -3 -7 -13 -7 -22 1 -13 3 -13 11 2 11 19 8 33 -4 20z"/>
<path d="M2480 2930 c-7 -13 -16 -17 -27 -13 -13 5 -12 1 5 -17 24 -26 28 -40
10 -40 -6 0 -8 -3 -5 -7 9 -8 47 27 47 44 0 7 4 13 9 13 5 0 12 7 15 15 3 10
-8 5 -32 -12 -25 -18 -32 -21 -21 -8 25 31 31 45 20 45 -6 0 -15 -9 -21 -20z"/>
<path d="M3350 2102 c0 -5 7 -16 16 -23 14 -12 16 -11 13 5 -4 20 -29 35 -29
18z"/>
<path d="M3120 2119 c0 -5 5 -7 10 -4 6 3 10 8 10 11 0 2 -4 4 -10 4 -5 0 -10
-5 -10 -11z"/>
<path d="M901 1621 c-21 -16 -21 -19 -6 -24 23 -9 27 -9 20 3 -3 6 1 13 9 16
16 6 22 24 9 24 -5 0 -19 -9 -32 -19z"/>
<path d="M4075 1480 c3 -5 8 -10 11 -10 2 0 4 5 4 10 0 6 -5 10 -11 10 -5 0
-7 -4 -4 -10z"/>
<path d="M4100 1466 c0 -2 7 -6 15 -10 8 -3 15 -1 15 4 0 6 -7 10 -15 10 -8 0
-15 -2 -15 -4z"/>
<path d="M590 1335 c-7 -8 -9 -22 -5 -32 6 -15 9 -13 16 11 10 35 7 42 -11 21z"/>
<path d="M666 1288 c-9 -12 -14 -24 -12 -26 5 -5 46 30 46 40 0 16 -19 8 -34
-14z"/>
<path d="M4020 1310 c0 -5 4 -10 9 -10 5 0 11 -10 13 -22 3 -23 4 -23 9 -2 4
14 0 25 -12 33 -12 7 -19 7 -19 1z"/>
<path d="M3940 1272 c0 -5 10 -17 21 -28 22 -19 22 -19 10 3 -12 24 -31 39
-31 25z"/>
<path d="M1540 1380 c0 -5 5 -10 11 -10 5 0 7 5 4 10 -3 6 -8 10 -11 10 -2 0
-4 -4 -4 -10z"/>
<path d="M1560 1349 c0 -5 5 -7 10 -4 6 3 10 8 10 11 0 2 -4 4 -10 4 -5 0 -10
-5 -10 -11z"/>
<path d="M1655 1310 c3 -5 8 -10 11 -10 2 0 4 5 4 10 0 6 -5 10 -11 10 -5 0
-7 -4 -4 -10z"/>
<path d="M1658 1283 c-22 -6 -23 -17 -2 -37 21 -22 23 -21 22 14 -1 17 -1 29
-2 29 -1 -1 -9 -3 -18 -6z"/>
<path d="M1610 1265 c7 -9 15 -13 17 -11 7 7 -7 26 -19 26 -6 0 -6 -6 2 -15z"/>
<path d="M1601 1233 c-1 -29 19 -74 30 -67 5 3 9 14 9 26 0 14 -5 18 -16 14
-8 -3 -13 -2 -11 2 3 4 1 16 -4 27 -7 19 -8 19 -8 -2z"/>
<path d="M1405 1211 c-3 -5 -1 -12 5 -16 5 -3 10 1 10 9 0 18 -6 21 -15 7z"/>
<path d="M1260 1135 c0 -8 2 -15 4 -15 2 0 6 7 10 15 3 8 1 15 -4 15 -6 0 -10
-7 -10 -15z"/>
<path d="M1490 1130 c0 -5 5 -10 10 -10 6 0 10 5 10 10 0 6 -4 10 -10 10 -5 0
-10 -4 -10 -10z"/>
<path d="M1399 1110 c-7 -13 -10 -13 -18 0 -6 8 -14 11 -18 6 -4 -4 1 -14 11
-22 17 -12 21 -11 32 4 12 16 13 16 14 -3 0 -14 7 -20 25 -21 29 -2 29 -3 14
30 -13 27 -45 31 -60 6z"/>
<path d="M1180 1104 c0 -8 5 -12 10 -9 6 4 8 11 5 16 -9 14 -15 11 -15 -7z"/>
<path d="M1326 1088 c-9 -12 -16 -37 -16 -54 0 -18 -5 -34 -12 -36 -12 -4 18
-58 33 -58 13 0 11 -44 -2 -57 -7 -7 -7 -27 -1 -64 6 -29 8 -59 5 -66 -3 -7 0
-13 7 -13 7 0 21 -11 32 -25 17 -22 25 -25 69 -20 54 5 73 18 89 59 7 21 6 24
-6 19 -8 -3 -13 -12 -10 -19 3 -9 -8 -15 -38 -19 -64 -10 -79 -4 -99 38 -18
37 -18 41 -1 88 14 39 22 48 36 43 31 -9 60 5 53 27 -4 13 -2 19 8 19 10 0 13
-8 9 -25 -3 -16 0 -25 8 -25 18 0 39 -31 41 -60 1 -23 2 -23 8 5 5 18 3 34 -4
40 -6 6 -23 31 -38 56 -14 26 -33 49 -42 53 -15 5 -83 -28 -77 -39 1 -3 -1 -5
-5 -5 -5 0 -8 3 -8 8 0 4 -9 19 -19 34 -10 15 -15 31 -12 36 7 12 17 82 11 82
-2 0 -11 -10 -19 -22z m19 -118 c3 -5 1 -10 -4 -10 -6 0 -11 5 -11 10 0 6 2
10 4 10 3 0 8 -4 11 -10z m105 0 c0 -5 -4 -10 -10 -10 -5 0 -10 5 -10 10 0 6
5 10 10 10 6 0 10 -4 10 -10z m-5 -40 c0 -22 -21 -22 -22 1 -1 12 3 19 10 16
7 -2 12 -10 12 -17z m-85 -70 c0 -5 -5 -10 -11 -10 -5 0 -7 5 -4 10 3 6 8 10
11 10 2 0 4 -4 4 -10z m130 -140 c0 -5 -5 -10 -11 -10 -5 0 -7 5 -4 10 3 6 8
10 11 10 2 0 4 -4 4 -10z"/>
<path d="M1100 1073 c0 -18 2 -33 4 -33 9 0 13 39 5 51 -6 10 -9 4 -9 -18z"/>
<path d="M1230 1089 c0 -5 5 -7 10 -4 6 3 10 8 10 11 0 2 -4 4 -10 4 -5 0 -10
-5 -10 -11z"/>
<path d="M1530 1061 c0 -6 4 -13 10 -16 6 -3 7 1 4 9 -7 18 -14 21 -14 7z"/>
<path d="M1149 1039 c36 -22 52 -19 28 6 -9 8 -26 15 -39 15 -21 0 -20 -2 11
-21z"/>
<path d="M1360 1040 c0 -11 2 -20 4 -20 2 0 6 9 9 20 3 11 1 20 -4 20 -5 0 -9
-9 -9 -20z"/>
<path d="M1440 1045 c0 -8 2 -15 4 -15 2 0 6 7 10 15 3 8 1 15 -4 15 -6 0 -10
-7 -10 -15z"/>
<path d="M1220 1043 c0 -5 4 -14 9 -22 7 -11 11 -9 20 8 10 18 9 21 -9 21 -11
0 -20 -3 -20 -7z"/>
<path d="M1460 1031 c0 -6 4 -13 10 -16 6 -3 7 1 4 9 -7 18 -14 21 -14 7z"/>
<path d="M1555 1020 c3 -5 8 -10 11 -10 2 0 4 5 4 10 0 6 -5 10 -11 10 -5 0
-7 -4 -4 -10z"/>
<path d="M1490 990 c19 -13 30 -13 30 0 0 6 -10 10 -22 10 -19 0 -20 -2 -8
-10z"/>
<path d="M1566 983 c-4 -9 -1 -32 5 -51 10 -31 13 -33 27 -18 13 12 14 19 4
28 -7 7 -12 20 -12 29 0 24 -17 33 -24 12z"/>
<path d="M1155 981 c-7 -12 12 -24 25 -16 11 7 4 25 -10 25 -5 0 -11 -4 -15
-9z"/>
<path d="M1230 973 c0 -13 5 -23 10 -23 13 0 13 11 0 30 -8 12 -10 11 -10 -7z"/>
<path d="M1684 962 c-12 -10 -24 -28 -28 -39 -6 -18 -3 -21 16 -19 31 3 76 28
60 34 -6 2 -12 12 -12 23 0 23 -9 24 -36 1z m26 -28 c0 -8 -5 -12 -10 -9 -6 4
-8 11 -5 16 9 14 15 11 15 -7z"/>
<path d="M1230 916 c0 -9 5 -16 10 -16 6 0 10 4 10 9 0 6 -4 13 -10 16 -5 3
-10 -1 -10 -9z"/>
<path d="M1735 889 c-4 -6 -5 -12 -2 -15 2 -3 7 2 10 11 7 17 1 20 -8 4z"/>
<path d="M1250 865 c0 -8 7 -15 15 -15 8 0 15 7 15 15 0 8 -7 15 -15 15 -8 0
-15 -7 -15 -15z"/>
<path d="M1420 870 c-8 -5 -12 -11 -10 -14 3 -2 14 2 24 10 22 15 10 19 -14 4z"/>
<path d="M1575 870 c-3 -5 3 -14 14 -19 23 -13 31 -14 31 -3 0 13 -39 32 -45
22z"/>
<path d="M1410 815 c0 -8 4 -15 10 -15 5 0 7 7 4 15 -4 8 -8 15 -10 15 -2 0
-4 -7 -4 -15z"/>
<path d="M1270 793 c0 -5 5 -15 10 -23 8 -12 10 -11 10 8 0 12 -4 22 -10 22
-5 0 -10 -3 -10 -7z"/>
<path d="M1415 760 c-3 -5 -1 -10 4 -10 6 0 11 5 11 10 0 6 -2 10 -4 10 -3 0
-8 -4 -11 -10z"/>
<path d="M1458 753 c7 -3 16 -2 19 1 4 3 -2 6 -13 5 -11 0 -14 -3 -6 -6z"/>
<path d="M1320 711 c0 -5 7 -11 15 -15 8 -3 15 -12 15 -21 0 -8 7 -15 15 -15
21 0 19 7 -10 35 -26 26 -35 31 -35 16z"/>
<path d="M1565 700 c3 -5 8 -10 11 -10 2 0 4 5 4 10 0 6 -5 10 -11 10 -5 0 -7
-4 -4 -10z"/>
<path d="M1413 653 c-19 -7 -16 -20 7 -26 13 -3 20 0 20 8 0 17 -11 24 -27 18z"/>
<path d="M1490 624 c0 -8 5 -12 10 -9 6 3 10 10 10 16 0 5 -4 9 -10 9 -5 0
-10 -7 -10 -16z"/>
<path d="M1425 520 c3 -5 11 -10 16 -10 6 0 7 5 4 10 -3 6 -11 10 -16 10 -6 0
-7 -4 -4 -10z"/>
<path d="M3070 1320 c0 -5 5 -10 10 -10 6 0 10 5 10 10 0 6 -4 10 -10 10 -5 0
-10 -4 -10 -10z"/>
<path d="M3033 1293 c-10 -3 -9 -8 2 -19 17 -18 35 -10 34 14 -1 15 -2 15 -6
-1 -2 -9 -9 -15 -14 -11 -5 3 -7 10 -4 15 7 10 6 10 -12 2z"/>
<path d="M2970 1279 c0 -5 5 -7 10 -4 6 3 10 8 10 11 0 2 -4 4 -10 4 -5 0 -10
-5 -10 -11z"/>
<path d="M3084 1262 c4 -10 -1 -38 -9 -62 -18 -50 -18 -53 -6 -45 6 3 14 -3
20 -12 9 -15 10 -16 11 -2 0 9 8 23 18 31 20 18 59 8 68 -17 4 -8 14 -15 23
-15 20 1 -33 50 -54 50 -17 0 -35 31 -35 60 0 12 -4 18 -10 15 -5 -3 -10 -1
-10 4 0 6 -5 11 -11 11 -6 0 -8 -8 -5 -18z"/>
<path d="M3144 1245 c-9 -23 4 -48 22 -41 9 3 25 -4 39 -18 14 -14 27 -20 31
-15 7 12 -3 24 -19 24 -6 0 -17 11 -24 25 -7 14 -13 19 -13 12 0 -8 -6 -12
-12 -9 -7 2 -12 11 -10 21 4 20 -7 21 -14 1z"/>
<path d="M3019 1233 c-13 -16 -12 -17 4 -4 9 7 17 15 17 17 0 8 -8 3 -21 -13z"/>
<path d="M3027 1197 c-4 -15 -12 -25 -16 -22 -5 3 -11 -1 -14 -7 -5 -15 2 -38
12 -38 11 0 33 59 29 77 -3 13 -6 10 -11 -10z"/>
<path d="M3303 1212 c-14 -2 -20 -8 -16 -17 6 -17 -21 -47 -33 -37 -5 4 -2 -1
5 -11 13 -16 15 -16 26 -1 9 14 16 14 33 5 22 -12 42 -8 42 8 0 5 -12 6 -27 4
l-28 -5 22 19 c25 21 12 40 -24 35z"/>
<path d="M3257 1204 c-4 -4 -7 -14 -7 -23 0 -11 3 -12 11 -4 6 6 10 16 7 23
-2 6 -7 8 -11 4z"/>
<path d="M3056 1125 c4 -8 8 -15 10 -15 2 0 4 7 4 15 0 8 -4 15 -10 15 -5 0
-7 -7 -4 -15z"/>
<path d="M3364 1115 c3 -21 16 -31 16 -12 0 9 -4 18 -9 21 -5 4 -8 -1 -7 -9z"/>
<path d="M3130 1095 c0 -8 2 -15 4 -15 2 0 6 7 10 15 3 8 1 15 -4 15 -6 0 -10
-7 -10 -15z"/>
<path d="M3179 1073 c-12 -33 -11 -37 6 -23 8 7 15 9 15 4 0 -5 5 -2 11 6 8
11 12 12 15 3 4 -8 13 -9 28 -3 33 12 42 1 41 -49 0 -28 -6 -47 -18 -56 -9 -7
-17 -17 -17 -24 0 -6 -4 -11 -10 -11 -5 0 -10 6 -10 13 0 18 -47 39 -69 32
-10 -3 -28 -23 -40 -45 -22 -39 -22 -40 -2 -40 16 0 19 5 15 26 -3 18 -1 25 8
22 7 -3 13 -13 13 -23 0 -10 7 -21 15 -23 12 -4 13 -2 3 10 -10 11 -10 17 -1
26 21 21 30 13 23 -20 -4 -24 -3 -29 4 -18 12 18 21 10 38 -38 16 -48 16 -61
-2 -96 -18 -34 -18 -36 -4 -36 22 0 40 31 51 85 9 44 8 59 -1 65 -19 11 -9 41
24 72 23 21 27 30 17 36 -8 5 -13 18 -11 28 4 35 -12 71 -39 84 -19 8 -28 8
-30 1 -5 -15 -23 -14 -19 0 1 6 -9 13 -21 14 -17 1 -26 -5 -33 -22z m15 -134
c-3 -5 -10 -7 -15 -3 -5 3 -7 10 -3 15 3 5 10 7 15 3 5 -3 7 -10 3 -15z m106
1 c0 -5 -4 -10 -10 -10 -5 0 -10 5 -10 10 0 6 5 10 10 10 6 0 10 -4 10 -10z
m-20 -112 c0 -20 -18 -5 -23 19 -5 26 -4 26 9 8 8 -10 14 -22 14 -27z"/>
<path d="M3440 1074 c0 -8 5 -12 10 -9 6 3 10 10 10 16 0 5 -4 9 -10 9 -5 0
-10 -7 -10 -16z"/>
<path d="M3520 1045 c0 -9 -9 -15 -24 -15 -25 0 -54 -26 -42 -37 4 -4 10 -3
14 3 4 6 17 14 30 18 24 8 51 46 32 46 -5 0 -10 -7 -10 -15z"/>
<path d="M3086 1023 c-6 -14 -5 -15 5 -6 7 7 10 15 7 18 -3 3 -9 -2 -12 -12z"/>
<path d="M2980 1021 c0 -5 -8 -7 -19 -4 -10 3 -22 0 -25 -6 -5 -7 5 -11 28
-11 25 0 36 4 36 15 0 8 -4 15 -10 15 -5 0 -10 -4 -10 -9z"/>
<path d="M3384 1004 c3 -9 6 -19 6 -22 0 -9 20 21 20 31 0 4 -7 7 -16 7 -11 0
-14 -5 -10 -16z"/>
<path d="M3060 1000 c0 -5 5 -10 11 -10 5 0 7 5 4 10 -3 6 -8 10 -11 10 -2 0
-4 -4 -4 -10z"/>
<path d="M3115 969 c-10 -15 3 -25 16 -12 7 7 7 13 1 17 -6 3 -14 1 -17 -5z"/>
<path d="M3035 960 c-3 -5 -3 -10 1 -10 3 0 0 -10 -9 -23 -12 -19 -12 -24 -1
-35 11 -10 15 -8 20 13 3 14 10 25 14 25 5 0 6 9 3 20 -6 22 -18 26 -28 10z"/>
<path d="M3386 944 c-4 -9 -4 -19 -1 -22 2 -3 7 3 11 12 4 9 4 19 1 22 -2 3
-7 -3 -11 -12z"/>
<path d="M3447 954 c-11 -11 3 -24 18 -18 8 4 12 10 9 15 -6 11 -18 12 -27 3z"/>
<path d="M2917 931 c16 -14 19 -21 10 -30 -8 -8 -8 -11 0 -11 6 0 19 -3 27 -6
13 -5 15 -2 9 12 -8 21 -43 53 -58 53 -5 0 0 -8 12 -18z"/>
<path d="M3575 930 c3 -5 8 -10 11 -10 2 0 4 5 4 10 0 6 -5 10 -11 10 -5 0 -7
-4 -4 -10z"/>
<path d="M2895 910 c3 -5 8 -10 11 -10 2 0 4 5 4 10 0 6 -5 10 -11 10 -5 0 -7
-4 -4 -10z"/>
<path d="M3380 884 c0 -8 5 -12 10 -9 6 4 8 11 5 16 -9 14 -15 11 -15 -7z"/>
<path d="M3080 854 c0 -14 3 -14 15 -4 8 7 15 14 15 16 0 2 -7 4 -15 4 -8 0
-15 -7 -15 -16z"/>
<path d="M3018 843 c-28 -7 -21 -21 7 -15 14 2 25 8 25 13 0 9 -4 10 -32 2z"/>
<path d="M3350 840 c0 -5 5 -10 10 -10 6 0 10 5 10 10 0 6 -4 10 -10 10 -5 0
-10 -4 -10 -10z"/>
<path d="M3330 755 c0 -8 2 -15 4 -15 2 0 6 7 10 15 3 8 1 15 -4 15 -6 0 -10
-7 -10 -15z"/>
<path d="M3474 744 c3 -9 6 -20 6 -25 0 -5 5 -9 10 -9 6 0 10 11 10 25 0 16
-6 25 -16 25 -11 0 -14 -5 -10 -16z"/>
<path d="M3110 709 c0 -5 5 -7 10 -4 6 3 10 8 10 11 0 2 -4 4 -10 4 -5 0 -10
-5 -10 -11z"/>
<path d="M3146 696 c7 -19 63 -29 81 -14 19 16 -1 28 -49 28 -28 0 -36 -4 -32
-14z"/>
<path d="M3280 689 c0 -5 5 -7 10 -4 6 3 10 8 10 11 0 2 -4 4 -10 4 -5 0 -10
-5 -10 -11z"/>
<path d="M3257 663 c-4 -3 -7 -11 -7 -17 0 -6 5 -5 12 2 6 6 9 14 7 17 -3 3
-9 2 -12 -2z"/>
<path d="M3188 623 c7 -3 16 -2 19 1 4 3 -2 6 -13 5 -11 0 -14 -3 -6 -6z"/>
<path d="M3105 610 c3 -5 8 -10 11 -10 2 0 4 5 4 10 0 6 -5 10 -11 10 -5 0 -7
-4 -4 -10z"/>
<path d="M791 1171 c0 -3 3 -14 7 -23 6 -15 9 -15 28 5 l21 22 -28 1 c-16 1
-29 -2 -28 -5z"/>
<path d="M765 1130 c-3 -5 -1 -10 4 -10 6 0 11 5 11 10 0 6 -2 10 -4 10 -3 0
-8 -4 -11 -10z"/>
<path d="M850 1096 c0 -8 5 -18 10 -21 6 -3 10 3 10 14 0 12 -4 21 -10 21 -5
0 -10 -6 -10 -14z"/>
<path d="M820 1031 c0 -6 5 -13 10 -16 6 -3 10 1 10 9 0 9 -4 16 -10 16 -5 0
-10 -4 -10 -9z"/>
<path d="M900 840 c-13 -8 -13 -10 2 -10 9 0 20 5 23 10 8 13 -5 13 -25 0z"/>
<path d="M1094 1312 c-11 -16 -9 -18 17 -14 32 5 38 16 13 26 -9 3 -16 6 -17
6 -1 0 -7 -8 -13 -18z"/>
<path d="M1170 1270 c0 -5 5 -10 10 -10 6 0 10 5 10 10 0 6 -4 10 -10 10 -5 0
-10 -4 -10 -10z"/>
<path d="M3825 1140 c-4 -6 -12 -7 -18 -3 -7 4 -5 -2 3 -13 8 -10 15 -20 15
-21 0 -1 6 6 13 17 6 11 8 21 2 25 -5 3 -11 1 -15 -5z"/>
<path d="M3760 1059 c0 -11 5 -17 10 -14 6 3 10 13 10 21 0 8 -4 14 -10 14 -5
0 -10 -9 -10 -21z"/>
<path d="M3832 1000 c0 -14 2 -19 5 -12 2 6 2 18 0 25 -3 6 -5 1 -5 -13z"/>
<path d="M3690 711 c0 -13 26 -32 33 -24 14 13 6 33 -13 33 -11 0 -20 -4 -20
-9z"/>
<path d="M3800 684 c0 -8 5 -12 10 -9 6 3 10 10 10 16 0 5 -4 9 -10 9 -5 0
-10 -7 -10 -16z"/>
<path d="M3800 646 c0 -8 5 -18 10 -21 6 -3 10 3 10 14 0 12 -4 21 -10 21 -5
0 -10 -6 -10 -14z"/>
<path d="M3467 1243 c-4 -3 -7 -11 -7 -17 0 -6 5 -5 12 2 6 6 9 14 7 17 -3 3
-9 2 -12 -2z"/>
<path d="M3510 1275 c0 -9 9 -15 25 -15 18 0 23 4 19 15 -4 8 -15 15 -25 15
-10 0 -19 -7 -19 -15z"/>
<path d="M1007 753 c-4 -3 -7 -11 -7 -17 0 -6 5 -5 12 2 6 6 9 14 7 17 -3 3
-9 2 -12 -2z"/>
<path d="M796 721 c-5 -7 -4 -17 2 -23 7 -7 7 -16 -1 -29 -6 -10 -8 -22 -3
-26 4 -4 12 0 17 10 6 9 17 17 24 17 8 0 15 5 15 11 0 6 -6 9 -14 6 -10 -4
-18 3 -24 21 -6 18 -11 22 -16 13z"/>
<path d="M830 610 c0 -5 5 -10 11 -10 5 0 7 5 4 10 -3 6 -8 10 -11 10 -2 0 -4
-4 -4 -10z"/>
</g>
</svg>
