<?xml version="1.0" standalone="no"?>
<!DOCTYPE svg PUBLIC "-//W3C//DTD SVG 20010904//EN"
 "http://www.w3.org/TR/2001/REC-SVG-20010904/DTD/svg10.dtd">
<svg version="1.0" xmlns="http://www.w3.org/2000/svg"
 width="284.000000pt" height="284.000000pt" viewBox="0 0 284.000000 284.000000"
 preserveAspectRatio="xMidYMid meet">
<metadata>
Created by potrace 1.11, written by Peter Selinger 2001-2013
</metadata>
<g transform="translate(0.000000,284.000000) scale(0.100000,-0.100000)"
fill="#000000" stroke="none">
<path d="M1231 2820 c-159 -22 -361 -90 -501 -168 -90 -50 -243 -168 -317
-244 -189 -194 -319 -439 -379 -718 -26 -120 -26 -420 0 -540 60 -279 189
-523 379 -718 145 -149 365 -286 562 -350 169 -56 243 -67 445 -67 142 0 205
5 270 19 217 47 407 132 571 256 287 217 467 501 545 860 26 120 26 420 0 540
-123 568 -531 982 -1095 1111 -99 23 -376 34 -480 19z m423 -235 c471 -98 832
-460 933 -936 24 -115 24 -343 0 -458 -102 -479 -459 -836 -938 -938 -115 -24
-343 -24 -458 0 -479 102 -836 459 -938 938 -24 115 -24 343 0 458 110 518
517 889 1047 955 68 8 276 -3 354 -19z"/>
<path d="M1370 1650 l0 -500 50 0 50 0 0 500 0 500 -50 0 -50 0 0 -500z"/>
<path d="M912 2127 c-47 -27 -68 -83 -48 -132 19 -44 52 -65 102 -65 50 0 90
35 100 85 15 83 -81 152 -154 112z"/>
<path d="M1828 2124 c-93 -50 -59 -194 46 -194 23 0 52 7 65 16 28 20 53 76
45 101 -27 83 -89 114 -156 77z"/>
<path d="M1365 831 c-53 -32 -68 -58 -73 -119 -3 -47 0 -63 20 -92 84 -125
270 -66 270 86 0 108 -127 181 -217 125z"/>
</g>
</svg>
