<svg width="1280" height="15" viewBox="0 0 1280 15" xmlns="http://www.w3.org/2000/svg">
  <title>
    Page decor
  </title>
  <g stroke="#FFEFEF" fill="none" fill-rule="evenodd" stroke-linecap="square">
    <path d="M17.97-.47L.3 17.2M47.97-.47L30.3 17.2M77.97-.47L60.3 17.2M107.97-.47L90.3 17.2M137.97-.47L120.3 17.2M167.97-.47L150.3 17.2M197.97-.47L180.3 17.2M227.97-.47L210.3 17.2M257.97-.47L240.3 17.2M287.97-.47L270.3 17.2M317.97-.47L300.3 17.2M347.97-.47L330.3 17.2M377.97-.47L360.3 17.2M407.97-.47L390.3 17.2M437.97-.47L420.3 17.2M467.97-.47L450.3 17.2M497.97-.47L480.3 17.2M527.97-.47L510.3 17.2M557.97-.47L540.3 17.2M587.97-.47L570.3 17.2M617.97-.47L600.3 17.2M647.97-.47L630.3 17.2M677.97-.47L660.3 17.2M707.97-.47L690.3 17.2M737.97-.47L720.3 17.2M767.97-.47L750.3 17.2M797.97-.47L780.3 17.2M827.97-.47L810.3 17.2M857.97-.47L840.3 17.2M887.97-.47L870.3 17.2M917.97-.47L900.3 17.2M947.97-.47L930.3 17.2M977.97-.47L960.3 17.2M1007.97-.47L990.3 17.2M1037.97-.47L1020.3 17.2M1067.97-.47L1050.3 17.2M1097.97-.47L1080.3 17.2M1127.97-.47L1110.3 17.2M1157.97-.47L1140.3 17.2M1187.97-.47L1170.3 17.2M1217.97-.47L1200.3 17.2M1247.97-.47L1230.3 17.2M1277.97-.47L1260.3 17.2"/>
  </g>
</svg>
